<?xml version="1.0" encoding="UTF-8"?>
<!DOCTYPE svg PUBLIC "-//W3C//DTD SVG 1.1//EN" "http://www.w3.org/Graphics/SVG/1.1/DTD/svg11.dtd">
<svg xmlns="http://www.w3.org/2000/svg" version="1.1" width="490px" height="509px" style="shape-rendering:geometricPrecision; text-rendering:geometricPrecision; image-rendering:optimizeQuality; fill-rule:evenodd; clip-rule:evenodd" xmlns:xlink="http://www.w3.org/1999/xlink">
<g><path style="opacity:1" fill="#131514" d="M 300.5,100.5 C 301.847,99.8288 303.014,99.8288 304,100.5C 304.186,102.9 304.686,105.234 305.5,107.5C 306.761,103.939 307.594,100.272 308,96.5C 308.333,96.1667 308.667,95.8333 309,95.5C 310.754,97.25 312.921,97.9167 315.5,97.5C 315.514,100.627 314.514,103.293 312.5,105.5C 313.073,108.085 314.739,109.085 317.5,108.5C 317.082,102.354 319.415,101.021 324.5,104.5C 323.975,105.192 323.308,105.692 322.5,106C 323.416,106.278 324.082,106.778 324.5,107.5C 315.128,117.873 305.128,127.539 294.5,136.5C 279.42,126.02 262.753,119.02 244.5,115.5C 243.749,114.624 243.249,113.624 243,112.5C 242.667,96.5 242.333,80.5 242,64.5C 238.599,57.7173 233.433,55.8839 226.5,59C 224.622,60.5429 223.122,62.3762 222,64.5C 221.667,80.1667 221.333,95.8333 221,111.5C 220.598,112.872 220.098,114.205 219.5,115.5C 199.168,118.989 180.835,126.822 164.5,139C 163.5,139.667 162.5,139.667 161.5,139C 160.122,137.287 158.455,135.953 156.5,135C 145.842,123.043 134.509,111.709 122.5,101C 118.136,99.2512 114.136,100.084 110.5,103.5C 109.438,105.022 108.771,106.688 108.5,108.5C 105.457,109.744 104.124,112.077 104.5,115.5C 98.9902,115.83 93.6569,115.164 88.5,113.5C 88.5,112.5 88.5,111.5 88.5,110.5C 87.5,110.5 86.5,110.5 85.5,110.5C 85.5198,108.857 84.8532,107.524 83.5,106.5C 78.9137,106.321 75.0803,104.655 72,101.5C 71.2904,102.973 70.1238,103.64 68.5,103.5C 83.1457,86.8543 98.8123,71.1877 115.5,56.5C 119.553,58.3786 123.22,60.8786 126.5,64C 139.819,78.7865 153.486,93.2865 167.5,107.5C 168.723,108.614 170.056,108.781 171.5,108C 178.721,104.539 186.055,101.372 193.5,98.5C 194.196,74.4771 194.862,50.4771 195.5,26.5C 207.849,26.7038 220.183,26.3705 232.5,25.5C 244.157,26.1951 255.823,26.6951 267.5,27C 268.227,28.3988 268.727,29.8988 269,31.5C 269.5,53.8308 269.667,76.1642 269.5,98.5C 277.365,101.4 285.198,104.4 293,107.5C 295.37,104.961 297.87,102.628 300.5,100.5 Z"/></g>
<g><path style="opacity:1" fill="#141615" d="M 388.5,63.5 C 403.326,63.1926 409.16,70.1926 406,84.5C 400.599,92.8143 393.432,94.6477 384.5,90C 382.622,88.4571 381.122,86.6238 380,84.5C 379.333,80.1667 379.333,75.8333 380,71.5C 382.157,68.0241 384.99,65.3575 388.5,63.5 Z"/></g>
<g><path style="opacity:1" fill="#151816" d="M 436.5,51.5 C 435.523,54.2869 435.19,57.2869 435.5,60.5C 432.167,60.5 428.833,60.5 425.5,60.5C 425.143,65.0802 424.976,69.7469 425,74.5C 424.667,76.8333 424.333,79.1667 424,81.5C 423.617,82.056 423.117,82.3893 422.5,82.5C 424.223,65.7546 417.223,54.588 401.5,49C 382.612,45.6869 369.779,52.8536 363,70.5C 362.667,73.5 362.333,76.5 362,79.5C 348.204,86.9936 335.704,96.3269 324.5,107.5C 324.082,106.778 323.416,106.278 322.5,106C 323.308,105.692 323.975,105.192 324.5,104.5C 319.415,101.021 317.082,102.354 317.5,108.5C 314.739,109.085 313.073,108.085 312.5,105.5C 314.514,103.293 315.514,100.627 315.5,97.5C 312.921,97.9167 310.754,97.25 309,95.5C 308.667,95.8333 308.333,96.1667 308,96.5C 307.594,100.272 306.761,103.939 305.5,107.5C 304.686,105.234 304.186,102.9 304,100.5C 303.014,99.8288 301.847,99.8288 300.5,100.5C 311.7,86.7263 325.367,76.0596 341.5,68.5C 352.798,34.0731 376.132,21.2397 411.5,30C 422.193,34.5336 430.526,41.7002 436.5,51.5 Z"/></g>
<g><path style="opacity:1" fill="#171817" d="M 286.5,73.5 C 289.777,73.2161 292.943,73.5495 296,74.5C 300.679,81.933 298.846,86.5996 290.5,88.5C 287.963,88.565 285.963,87.565 284.5,85.5C 282.774,80.9801 283.441,76.9801 286.5,73.5 Z"/></g>
<g><path style="opacity:1" fill="#181a18" d="M 168.5,73.5 C 179.747,72.2397 183.08,76.7397 178.5,87C 170.813,90.6588 166.48,88.3255 165.5,80C 165.84,77.4887 166.84,75.322 168.5,73.5 Z"/></g>
<g><path style="opacity:1" fill="#141615" d="M 108.5,108.5 C 108.279,111.279 108.612,113.946 109.5,116.5C 109.5,117.833 110.167,118.5 111.5,118.5C 123.499,130.347 134.832,142.847 145.5,156C 140.279,164.274 135.446,172.774 131,181.5C 127.968,190.237 125.135,198.904 122.5,207.5C 119.973,200.92 117.307,200.92 114.5,207.5C 114.608,208.442 114.941,209.275 115.5,210C 104.152,210.832 92.8187,210.666 81.5,209.5C 88.4684,208.503 95.4684,208.17 102.5,208.5C 102.5,207.167 102.5,205.833 102.5,204.5C 105.792,204.88 108.125,203.547 109.5,200.5C 111.045,199.548 112.712,199.215 114.5,199.5C 114.5,197.833 114.5,196.167 114.5,194.5C 111.603,194.875 108.937,194.375 106.5,193C 107.647,190.915 106.98,189.415 104.5,188.5C 105.263,187.281 106.263,186.281 107.5,185.5C 107.145,184.478 106.478,183.811 105.5,183.5C 107.834,175.649 110.834,168.149 114.5,161C 98.6549,143.989 82.6549,127.156 66.5,110.5C 64.8637,107.362 65.5304,105.029 68.5,103.5C 70.1238,103.64 71.2904,102.973 72,101.5C 75.0803,104.655 78.9137,106.321 83.5,106.5C 84.8532,107.524 85.5198,108.857 85.5,110.5C 86.5,110.5 87.5,110.5 88.5,110.5C 88.5,111.5 88.5,112.5 88.5,113.5C 93.6569,115.164 98.9902,115.83 104.5,115.5C 104.124,112.077 105.457,109.744 108.5,108.5 Z"/></g>
<g><path style="opacity:1" fill="#646766" d="M 403.5,106.5 C 402.01,108.28 400.01,108.946 397.5,108.5C 399.214,107.262 401.214,106.595 403.5,106.5 Z"/></g>
<g><path style="opacity:0.98" fill="#bbbdbc" d="M 109.5,116.5 C 110.5,116.833 111.167,117.5 111.5,118.5C 110.167,118.5 109.5,117.833 109.5,116.5 Z"/></g>
<g><path style="opacity:1" fill="#141715" d="M 436.5,51.5 C 439.707,55.9088 441.874,60.9088 443,66.5C 447.052,91.2146 438.552,110.048 417.5,123C 412.113,125.577 406.446,127.077 400.5,127.5C 398.966,141.952 393.466,154.618 384,165.5C 360.885,189.615 337.051,213.115 312.5,236C 305.53,239.262 298.197,241.262 290.5,242C 280.783,269.764 261.283,283.93 232,284.5C 225.594,284.674 219.427,284.007 213.5,282.5C 211.701,278.097 211.034,273.43 211.5,268.5C 213.167,268.5 214.833,268.5 216.5,268.5C 216.5,270.5 216.5,272.5 216.5,274.5C 220.833,274.5 225.167,274.5 229.5,274.5C 229.5,272.5 229.5,270.5 229.5,268.5C 227.167,268.5 224.833,268.5 222.5,268.5C 222.5,267.167 222.5,265.833 222.5,264.5C 227.129,263.519 231.796,263.352 236.5,264C 233.385,266.448 232.218,269.615 233,273.5C 237.833,275.333 239.333,273.833 237.5,269C 239.769,268.242 241.936,268.409 244,269.5C 247.259,267.153 247.092,264.986 243.5,263C 243.743,262.098 244.077,261.265 244.5,260.5C 261.552,252.746 269.552,239.413 268.5,220.5C 276.507,220.666 284.507,220.5 292.5,220C 296.144,218.178 299.811,216.344 303.5,214.5C 326.316,191.585 349.149,168.585 372,145.5C 373,143.833 374,142.167 375,140.5C 378.347,130.112 381.847,119.779 385.5,109.5C 389.445,108.509 393.445,108.176 397.5,108.5C 400.01,108.946 402.01,108.28 403.5,106.5C 414.616,102.261 420.949,94.2614 422.5,82.5C 423.117,82.3893 423.617,82.056 424,81.5C 424.333,79.1667 424.667,76.8333 425,74.5C 424.976,69.7469 425.143,65.0802 425.5,60.5C 428.833,60.5 432.167,60.5 435.5,60.5C 435.19,57.2869 435.523,54.2869 436.5,51.5 Z"/></g>
<g><path style="opacity:1" fill="#191917" d="M 80.5,150.5 C 92.2763,149.575 95.6096,154.242 90.5,164.5C 88.8333,164.833 87.1667,165.167 85.5,165.5C 79.8835,165.884 77.2168,163.217 77.5,157.5C 77.7525,154.792 78.7525,152.458 80.5,150.5 Z"/></g>
<g><path style="opacity:1" fill="#131615" d="M 224.5,189.5 C 221.903,189.279 221.903,188.779 224.5,188C 223.667,187.833 222.833,187.667 222,187.5C 215.139,188.033 208.305,188.199 201.5,188C 200.594,186.301 200.261,184.467 200.5,182.5C 205.833,182.5 211.167,182.5 216.5,182.5C 216.5,181.167 216.5,179.833 216.5,178.5C 218.199,178.66 219.866,178.494 221.5,178C 221.514,171.18 223.847,170.014 228.5,174.5C 229.27,172.728 230.603,171.728 232.5,171.5C 235.722,172.706 238.888,172.706 242,171.5C 243.163,173.285 243.83,175.285 244,177.5C 246.8,179.118 248.3,178.285 248.5,175C 247.582,172.914 246.915,170.747 246.5,168.5C 254.198,170.014 261.198,173.18 267.5,178C 272.44,179.041 277.106,178.374 281.5,176C 300.052,159.868 317.719,142.868 334.5,125C 337.995,122.173 341.495,119.339 345,116.5C 349.741,119.234 353.907,122.734 357.5,127C 356.726,129.405 356.226,131.905 356,134.5C 337.419,153.081 318.919,171.581 300.5,190C 292.968,198.733 283.468,201.9 272,199.5C 266.833,199.333 261.667,199.167 256.5,199C 247.359,191.075 236.692,187.909 224.5,189.5 Z"/></g>
<g><path style="opacity:1" fill="#141614" d="M 105.5,183.5 C 106.478,183.811 107.145,184.478 107.5,185.5C 106.263,186.281 105.263,187.281 104.5,188.5C 106.98,189.415 107.647,190.915 106.5,193C 108.937,194.375 111.603,194.875 114.5,194.5C 114.5,196.167 114.5,197.833 114.5,199.5C 112.712,199.215 111.045,199.548 109.5,200.5C 108.125,203.547 105.792,204.88 102.5,204.5C 102.5,205.833 102.5,207.167 102.5,208.5C 95.4684,208.17 88.4684,208.503 81.5,209.5C 92.8187,210.666 104.152,210.832 115.5,210C 114.941,209.275 114.608,208.442 114.5,207.5C 117.307,200.92 119.973,200.92 122.5,207.5C 122.67,208.822 122.337,209.989 121.5,211C 103.829,211.552 86.1623,212.219 68.5,213C 59.234,219.547 59.234,226.047 68.5,232.5C 68.6107,233.117 68.944,233.617 69.5,234C 86.1633,234.5 102.83,234.667 119.5,234.5C 121.61,235.453 122.777,237.119 123,239.5C 124.108,243.086 124.608,246.753 124.5,250.5C 124.12,252.698 124.787,254.365 126.5,255.5C 130.295,269.628 135.961,282.962 143.5,295.5C 143.281,296.938 142.781,298.271 142,299.5C 131.891,309.778 121.724,319.778 111.5,329.5C 110.5,329.833 109.833,330.5 109.5,331.5C 106.602,345.777 111.936,350.61 125.5,346C 133.841,337.132 142.508,328.632 151.5,320.5C 151.369,321.239 151.536,321.906 152,322.5C 152.741,321.359 153.575,321.359 154.5,322.5C 155.167,326.167 155.833,329.833 156.5,333.5C 157.086,333.291 157.586,332.957 158,332.5C 158.497,330.19 158.663,327.857 158.5,325.5C 161.788,325.073 164.788,325.74 167.5,327.5C 167.302,331.13 167.302,334.797 167.5,338.5C 168.415,340.98 169.915,341.647 172,340.5C 172.41,341.901 172.91,343.234 173.5,344.5C 172.2,343.892 170.867,343.225 169.5,342.5C 165.813,345.855 162.147,349.189 158.5,352.5C 158.209,351.351 157.376,350.684 156,350.5C 153.451,352.189 150.618,353.522 147.5,354.5C 144.896,356.207 144.23,358.374 145.5,361C 144.696,362.771 143.529,364.271 142,365.5C 141.395,363.519 140.395,363.185 139,364.5C 139.152,366.519 139.652,368.519 140.5,370.5C 134.397,377.105 128.063,383.605 121.5,390C 119.167,390.667 116.833,390.667 114.5,390C 97.5813,374.083 81.4146,357.583 66,340.5C 65.3333,339.167 65.3333,337.833 66,336.5C 68,333.833 70,331.167 72,328.5C 86.0141,314.653 99.8474,300.653 113.5,286.5C 110.726,281.396 108.56,276.063 107,270.5C 106.174,267.207 105.674,263.874 105.5,260.5C 81.8239,260.833 58.1573,260.5 34.5,259.5C 32.8118,236.643 31.8118,213.643 31.5,190.5C 31.4062,188.088 32.4062,186.255 34.5,185C 58.1612,184.185 81.8279,183.685 105.5,183.5 Z"/></g>
<g><path style="opacity:1" fill="#151715" d="M 246.5,168.5 C 246.915,170.747 247.582,172.914 248.5,175C 248.3,178.285 246.8,179.118 244,177.5C 243.83,175.285 243.163,173.285 242,171.5C 238.888,172.706 235.722,172.706 232.5,171.5C 230.603,171.728 229.27,172.728 228.5,174.5C 223.847,170.014 221.514,171.18 221.5,178C 219.866,178.494 218.199,178.66 216.5,178.5C 216.5,179.833 216.5,181.167 216.5,182.5C 211.167,182.5 205.833,182.5 200.5,182.5C 200.261,184.467 200.594,186.301 201.5,188C 208.305,188.199 215.139,188.033 222,187.5C 222.833,187.667 223.667,187.833 224.5,188C 221.903,188.779 221.903,189.279 224.5,189.5C 201.017,198.124 191.85,214.79 197,239.5C 200.267,245.593 204.434,250.926 209.5,255.5C 209.833,256.5 210.5,257.167 211.5,257.5C 222.077,262.784 233.077,263.784 244.5,260.5C 244.077,261.265 243.743,262.098 243.5,263C 247.092,264.986 247.259,267.153 244,269.5C 241.936,268.409 239.769,268.242 237.5,269C 239.333,273.833 237.833,275.333 233,273.5C 232.218,269.615 233.385,266.448 236.5,264C 231.796,263.352 227.129,263.519 222.5,264.5C 222.5,265.833 222.5,267.167 222.5,268.5C 224.833,268.5 227.167,268.5 229.5,268.5C 229.5,270.5 229.5,272.5 229.5,274.5C 225.167,274.5 220.833,274.5 216.5,274.5C 216.5,272.5 216.5,270.5 216.5,268.5C 214.833,268.5 213.167,268.5 211.5,268.5C 211.034,273.43 211.701,278.097 213.5,282.5C 186.563,273.384 172.897,254.551 172.5,226C 173.078,199.499 185.411,180.832 209.5,170C 221.764,166.15 234.097,165.65 246.5,168.5 Z"/></g>
<g><path style="opacity:1" fill="#131514" d="M 427.5,135.5 C 429.175,148.035 430.175,160.869 430.5,174C 429.919,184.069 429.586,195.235 429.5,207.5C 432.58,212.494 435.247,217.661 437.5,223C 435.296,235.95 427.63,241.283 414.5,239C 404.904,234.407 401.737,226.907 405,216.5C 405.969,214.266 407.302,212.266 409,210.5C 409.167,189.492 409.667,168.492 410.5,147.5C 416.485,143.831 422.152,139.831 427.5,135.5 Z"/></g>
<g><path style="opacity:1" fill="#131514" d="M 224.5,208.5 C 241.119,205.969 249.619,212.969 250,229.5C 244.896,242.537 235.729,246.704 222.5,242C 214.497,236.038 211.997,228.204 215,218.5C 217.359,214.31 220.526,210.977 224.5,208.5 Z"/></g>
<g><path style="opacity:1" fill="#191a1a" d="M 375.5,214.5 C 383.64,213.806 387.14,217.472 386,225.5C 382.108,231.259 377.441,231.926 372,227.5C 369.325,222.011 370.492,217.678 375.5,214.5 Z"/></g>
<g><path style="opacity:1" fill="#727372" d="M 68.5,232.5 C 85.682,232.533 102.682,233.199 119.5,234.5C 102.83,234.667 86.1633,234.5 69.5,234C 68.944,233.617 68.6107,233.117 68.5,232.5 Z"/></g>
<g><path style="opacity:1" fill="#757775" d="M 124.5,250.5 C 125.537,251.93 126.204,253.597 126.5,255.5C 124.787,254.365 124.12,252.698 124.5,250.5 Z"/></g>
<g><path style="opacity:0.208" fill="#adadac" d="M 209.5,255.5 C 210.833,255.5 211.5,256.167 211.5,257.5C 210.5,257.167 209.833,256.5 209.5,255.5 Z"/></g>
<g><path style="opacity:1" fill="#131615" d="M 296.5,268.5 C 312.844,267.679 318.344,275.012 313,290.5C 303.371,298.118 295.371,296.784 289,286.5C 287.401,278.708 289.901,272.708 296.5,268.5 Z"/></g>
<g><path style="opacity:1" fill="#171919" d="M 82.5,275.5 C 90.9716,275.148 94.1382,279.148 92,287.5C 86.9667,292.997 82.3,292.664 78,286.5C 76.391,281.379 77.891,277.712 82.5,275.5 Z"/></g>
<g><path style="opacity:1" fill="#151717" d="M 375.5,275.5 C 383.709,274.872 387.209,278.539 386,286.5C 381.604,292.685 376.937,293.019 372,287.5C 371.333,284.5 371.333,281.5 372,278.5C 373.145,277.364 374.312,276.364 375.5,275.5 Z"/></g>
<g><path style="opacity:0.933" fill="#7d7f7c" d="M 332.5,275.5 C 332.573,277.027 331.906,278.027 330.5,278.5C 330.427,276.973 331.094,275.973 332.5,275.5 Z"/></g>
<g><path style="opacity:1" fill="#121412" d="M 195.5,329.5 C 196.287,331.104 197.62,331.771 199.5,331.5C 205.132,332.727 210.799,333.893 216.5,335C 218.726,336.227 220.226,338.061 221,340.5C 221.197,356.192 221.697,371.859 222.5,387.5C 225.977,394.084 230.977,395.751 237.5,392.5C 236.987,394.29 236.487,395.956 236,397.5C 237,396.833 238,396.167 239,395.5C 244.072,396.471 249.238,396.805 254.5,396.5C 254.5,395.5 254.5,394.5 254.5,393.5C 253.5,393.5 252.5,393.5 251.5,393.5C 252.217,390.677 253.217,388.01 254.5,385.5C 253.5,385.5 252.5,385.5 251.5,385.5C 251.5,382.167 251.5,378.833 251.5,375.5C 252.5,375.5 253.5,375.5 254.5,375.5C 254.5,370.167 254.5,364.833 254.5,359.5C 256.167,359.5 257.833,359.5 259.5,359.5C 259.5,364.833 259.5,370.167 259.5,375.5C 261.167,375.5 262.833,375.5 264.5,375.5C 264.168,384.525 264.502,393.525 265.5,402.5C 266.564,386.513 267.397,370.513 268,354.5C 268.5,376.497 268.667,398.497 268.5,420.5C 268.703,422.39 268.037,423.89 266.5,425C 243.16,425.833 219.826,425.666 196.5,424.5C 196.137,423.817 195.804,423.15 195.5,422.5C 195.667,399.498 195.5,376.498 195,353.5C 194.329,352.748 193.496,352.414 192.5,352.5C 185.814,350.607 179.48,347.94 173.5,344.5C 172.91,343.234 172.41,341.901 172,340.5C 169.915,341.647 168.415,340.98 167.5,338.5C 167.302,334.797 167.302,331.13 167.5,327.5C 164.788,325.74 161.788,325.073 158.5,325.5C 158.663,327.857 158.497,330.19 158,332.5C 157.586,332.957 157.086,333.291 156.5,333.5C 155.833,329.833 155.167,326.167 154.5,322.5C 153.575,321.359 152.741,321.359 152,322.5C 151.536,321.906 151.369,321.239 151.5,320.5C 154.131,317.038 157.298,314.038 161,311.5C 171.661,319.109 183.161,325.109 195.5,329.5 Z"/></g>
<g><path style="opacity:1" fill="#141614" d="M 268.5,420.5 C 268.667,398.497 268.5,376.497 268,354.5C 267.397,370.513 266.564,386.513 265.5,402.5C 264.502,393.525 264.168,384.525 264.5,375.5C 262.833,375.5 261.167,375.5 259.5,375.5C 259.5,370.167 259.5,364.833 259.5,359.5C 257.833,359.5 256.167,359.5 254.5,359.5C 254.5,364.833 254.5,370.167 254.5,375.5C 253.5,375.5 252.5,375.5 251.5,375.5C 251.5,378.833 251.5,382.167 251.5,385.5C 252.5,385.5 253.5,385.5 254.5,385.5C 253.217,388.01 252.217,390.677 251.5,393.5C 252.5,393.5 253.5,393.5 254.5,393.5C 254.5,394.5 254.5,395.5 254.5,396.5C 249.238,396.805 244.072,396.471 239,395.5C 238,396.167 237,396.833 236,397.5C 236.487,395.956 236.987,394.29 237.5,392.5C 239.223,390.747 240.723,388.747 242,386.5C 242.333,371.167 242.667,355.833 243,340.5C 243.346,338.152 244.513,336.319 246.5,335C 267.316,331.842 286.149,324.009 303,311.5C 311.994,318.328 320.16,325.995 327.5,334.5C 326.386,337.177 326.386,339.844 327.5,342.5C 328.719,341.737 329.719,340.737 330.5,339.5C 331.386,340.325 331.719,341.325 331.5,342.5C 332.833,342.5 334.167,342.5 335.5,342.5C 335.5,343.833 336.167,344.5 337.5,344.5C 338.5,345.5 339.5,346.5 340.5,347.5C 343.167,350.167 345.833,350.167 348.5,347.5C 352.443,346.724 354.943,344.391 356,340.5C 356.755,337.697 356.422,335.03 355,332.5C 344.029,320.143 332.862,308.143 321.5,296.5C 324.564,290.464 327.564,284.464 330.5,278.5C 331.906,278.027 332.573,277.027 332.5,275.5C 336.56,263.061 340.06,250.394 343,237.5C 344.194,236.57 345.527,235.903 347,235.5C 352.449,236.968 357.449,239.301 362,242.5C 361.705,258.284 358.205,273.284 351.5,287.5C 366.861,303.193 382.194,318.86 397.5,334.5C 398.833,337.167 398.833,339.833 397.5,342.5C 383.876,356.325 370.21,370.158 356.5,384C 353.547,386.793 350.213,388.96 346.5,390.5C 345.062,390.281 343.729,389.781 342.5,389C 327,373.5 311.5,358 296,342.5C 287.622,346.359 279.122,350.025 270.5,353.5C 269.833,375.996 269.167,398.33 268.5,420.5 Z"/></g>
<g><path style="opacity:0.627" fill="#b4b6b3" d="M 111.5,329.5 C 111.5,330.833 110.833,331.5 109.5,331.5C 109.833,330.5 110.5,329.833 111.5,329.5 Z"/></g>
<g><path style="opacity:0.933" fill="#8e8e8d" d="M 195.5,329.5 C 197.153,329.66 198.486,330.326 199.5,331.5C 197.62,331.771 196.287,331.104 195.5,329.5 Z"/></g>
<g><path style="opacity:1" fill="#373a38" d="M 327.5,334.5 C 330.209,337.175 332.876,339.842 335.5,342.5C 334.167,342.5 332.833,342.5 331.5,342.5C 331.719,341.325 331.386,340.325 330.5,339.5C 329.719,340.737 328.719,341.737 327.5,342.5C 326.386,339.844 326.386,337.177 327.5,334.5 Z"/></g>
<g><path style="opacity:0.98" fill="#bcbcbc" d="M 335.5,342.5 C 336.5,342.833 337.167,343.5 337.5,344.5C 336.167,344.5 335.5,343.833 335.5,342.5 Z"/></g>
<g><path style="opacity:1" fill="#5c5f5d" d="M 340.5,347.5 C 343.167,348.833 345.833,348.833 348.5,347.5C 345.833,350.167 343.167,350.167 340.5,347.5 Z"/></g>
<g><path style="opacity:1" fill="#242625" d="M 158.5,352.5 C 152.806,358.86 146.806,364.86 140.5,370.5C 139.652,368.519 139.152,366.519 139,364.5C 140.395,363.185 141.395,363.519 142,365.5C 143.529,364.271 144.696,362.771 145.5,361C 144.23,358.374 144.896,356.207 147.5,354.5C 150.618,353.522 153.451,352.189 156,350.5C 157.376,350.684 158.209,351.351 158.5,352.5 Z"/></g>
<g><path style="opacity:0.918" fill="#5c5f5c" d="M 192.5,352.5 C 193.496,352.414 194.329,352.748 195,353.5C 195.5,376.498 195.667,399.498 195.5,422.5C 194.668,400.004 194.168,377.337 194,354.5C 193.283,353.956 192.783,353.289 192.5,352.5 Z"/></g>
<g><path style="opacity:1" fill="#161918" d="M 171.5,362.5 C 178.969,363.082 181.802,367.082 180,374.5C 177.442,378.212 173.942,379.378 169.5,378C 165.338,374.522 164.504,370.356 167,365.5C 168.409,364.219 169.909,363.219 171.5,362.5 Z"/></g>
<g><path style="opacity:1" fill="#171917" d="M 288.5,362.5 C 296.696,362.529 299.863,366.529 298,374.5C 293.833,379.405 289.333,379.738 284.5,375.5C 282.247,369.865 283.58,365.532 288.5,362.5 Z"/></g>
</svg>
