<?xml version="1.0" encoding="UTF-8"?>
<!DOCTYPE svg PUBLIC "-//W3C//DTD SVG 1.1//EN" "http://www.w3.org/Graphics/SVG/1.1/DTD/svg11.dtd">
<svg xmlns="http://www.w3.org/2000/svg" version="1.1" width="890px" height="776px" style="shape-rendering:geometricPrecision; text-rendering:geometricPrecision; image-rendering:optimizeQuality; fill-rule:evenodd; clip-rule:evenodd" xmlns:xlink="http://www.w3.org/1999/xlink">
<g><path style="opacity:1" fill="#fefefe" d="M -0.5,-0.5 C 296.167,-0.5 592.833,-0.5 889.5,-0.5C 889.5,258.167 889.5,516.833 889.5,775.5C 592.833,775.5 296.167,775.5 -0.5,775.5C -0.5,516.833 -0.5,258.167 -0.5,-0.5 Z"/></g>
<g><path style="opacity:1" fill="#a9aba9" d="M 715.5,68.5 C 719.489,68.1164 723.155,68.783 726.5,70.5C 722.64,70.1916 718.974,69.5249 715.5,68.5 Z"/></g>
<g><path style="opacity:1" fill="#868885" d="M 692.5,68.5 C 690.095,69.7682 687.428,70.4349 684.5,70.5C 686.838,68.9605 689.505,68.2938 692.5,68.5 Z"/></g>
<g><path style="opacity:1" fill="#a9a9a9" d="M 730.5,71.5 C 733.491,71.1663 735.824,72.1663 737.5,74.5C 734.843,74.0652 732.509,73.0652 730.5,71.5 Z"/></g>
<g><path style="opacity:1" fill="#828582" d="M 744.5,77.5 C 746.027,77.427 747.027,78.0937 747.5,79.5C 745.973,79.573 744.973,78.9063 744.5,77.5 Z"/></g>
<g><path style="opacity:1" fill="#636663" d="M 663.5,78.5 C 663.027,79.9063 662.027,80.573 660.5,80.5C 660.973,79.0937 661.973,78.427 663.5,78.5 Z"/></g>
<g><path style="opacity:1" fill="#4c4c4c" d="M 641.5,97.5 C 640.92,99.7488 639.587,101.415 637.5,102.5C 638.08,100.251 639.413,98.5846 641.5,97.5 Z"/></g>
<g><path style="opacity:1" fill="#7e8180" d="M 778.5,112.5 C 779.906,112.973 780.573,113.973 780.5,115.5C 779.094,115.027 778.427,114.027 778.5,112.5 Z"/></g>
<g><path style="opacity:1" fill="#6d6d6d" d="M 262.5,118.5 C 258.5,117.167 254.5,117.167 250.5,118.5C 250.611,117.883 250.944,117.383 251.5,117C 254.833,116.333 258.167,116.333 261.5,117C 262.056,117.383 262.389,117.883 262.5,118.5 Z"/></g>
<g><path style="opacity:1" fill="#a6a8a6" d="M 503.5,70.5 C 504.117,70.6107 504.617,70.944 505,71.5C 505.5,108.832 505.667,146.165 505.5,183.5C 504.821,145.961 504.155,108.294 503.5,70.5 Z"/></g>
<g><path style="opacity:1" fill="#787a7a" d="M 782.5,120.5 C 783.924,122.515 784.59,124.848 784.5,127.5C 783.076,125.485 782.41,123.152 782.5,120.5 Z"/></g>
<g><path style="opacity:1" fill="#717371" d="M 625.5,124.5 C 625.59,127.152 624.924,129.485 623.5,131.5C 623.41,128.848 624.076,126.515 625.5,124.5 Z"/></g>
<g><path style="opacity:1" fill="#848784" d="M 785.5,131.5 C 786.924,133.515 787.59,135.848 787.5,138.5C 786.076,136.485 785.41,134.152 785.5,131.5 Z"/></g>
<g><path style="opacity:1" fill="#8d8d8d" d="M 547.5,144.5 C 542.937,142.466 538.27,142.133 533.5,143.5C 533.611,142.883 533.944,142.383 534.5,142C 538.594,141.233 542.594,141.566 546.5,143C 547.056,143.383 547.389,143.883 547.5,144.5 Z"/></g>
<g><path style="opacity:1" fill="#575b58" d="M 613.5,139.5 C 610.129,142.519 606.129,144.519 601.5,145.5C 605.158,142.939 609.158,140.939 613.5,139.5 Z"/></g>
<g><path style="opacity:1" fill="#171717" d="M 547.5,144.5 C 549.183,145.853 550.516,147.52 551.5,149.5C 552.265,152.096 552.599,154.763 552.5,157.5C 551.66,160.676 549.993,163.342 547.5,165.5C 546.167,165.833 544.833,166.167 543.5,166.5C 539.766,166.677 536.099,166.344 532.5,165.5C 530.292,164.106 528.792,162.106 528,159.5C 527.19,155.642 527.357,151.976 528.5,148.5C 530.5,147.167 532.167,145.5 533.5,143.5C 538.27,142.133 542.937,142.466 547.5,144.5 Z"/></g>
<g><path style="opacity:1" fill="#5d5d5d" d="M 533.5,143.5 C 532.167,145.5 530.5,147.167 528.5,148.5C 529.167,145.833 530.833,144.167 533.5,143.5 Z"/></g>
<g><path style="opacity:1" fill="#464646" d="M 223.5,145.5 C 221.5,149.5 218.5,152.5 214.5,154.5C 217.167,151.167 220.167,148.167 223.5,145.5 Z"/></g>
<g><path style="opacity:1" fill="#b3b3b3" d="M 551.5,149.5 C 553.026,150.492 553.693,151.992 553.5,154C 553.486,155.385 553.152,156.551 552.5,157.5C 552.599,154.763 552.265,152.096 551.5,149.5 Z"/></g>
<g><path style="opacity:1" fill="#535453" d="M 207.5,162.5 C 205.761,165.243 203.427,167.243 200.5,168.5C 202.239,165.757 204.573,163.757 207.5,162.5 Z"/></g>
<g><path style="opacity:1" fill="#4a4a4a" d="M 532.5,165.5 C 536.099,166.344 539.766,166.677 543.5,166.5C 540.713,167.477 537.713,167.81 534.5,167.5C 533.5,167.167 532.833,166.5 532.5,165.5 Z"/></g>
<g><path style="opacity:1" fill="#acacac" d="M 547.5,165.5 C 547.119,166.931 546.119,167.764 544.5,168C 540.973,168.808 537.64,168.641 534.5,167.5C 537.713,167.81 540.713,167.477 543.5,166.5C 544.833,166.167 546.167,165.833 547.5,165.5 Z"/></g>
<g><path style="opacity:1" fill="#8f9191" d="M 786.5,166.5 C 786.59,169.152 785.924,171.485 784.5,173.5C 784.41,170.848 785.076,168.515 786.5,166.5 Z"/></g>
<g><path style="opacity:1" fill="#adafaf" d="M 783.5,177.5 C 783.741,179.898 783.074,181.898 781.5,183.5C 781.259,181.102 781.926,179.102 783.5,177.5 Z"/></g>
<g><path style="opacity:1" fill="#3f4140" d="M 192.5,176.5 C 189.833,181.167 186.167,184.833 181.5,187.5C 184.833,183.5 188.5,179.833 192.5,176.5 Z"/></g>
<g><path style="opacity:1" fill="#9a9a9a" d="M 175.5,193.5 C 174.735,196.096 174.401,198.763 174.5,201.5C 173.848,200.551 173.514,199.385 173.5,198C 173.307,195.992 173.974,194.492 175.5,193.5 Z"/></g>
<g><path style="opacity:1" fill="#a9a9a8" d="M 594.5,199.5 C 590.773,204.23 586.44,208.23 581.5,211.5C 585.227,206.77 589.56,202.77 594.5,199.5 Z"/></g>
<g><path style="opacity:1" fill="#b8b9b9" d="M 769.5,203.5 C 766.833,208.167 763.167,211.833 758.5,214.5C 761.833,210.5 765.5,206.833 769.5,203.5 Z"/></g>
<g><path style="opacity:1" fill="#949796" d="M 691.5,206.5 C 690.538,210.395 689.204,214.061 687.5,217.5C 687.677,213.292 689.01,209.626 691.5,206.5 Z"/></g>
<g><path style="opacity:1" fill="#b3b4b4" d="M 581.5,211.5 C 580.5,214.5 578.5,216.5 575.5,217.5C 577.167,215.167 579.167,213.167 581.5,211.5 Z"/></g>
<g><path style="opacity:1" fill="#555757" d="M 629.5,213.5 C 628.127,213.343 626.793,213.51 625.5,214C 624.211,215.802 622.544,216.969 620.5,217.5C 622.423,213.16 625.423,211.827 629.5,213.5 Z"/></g>
<g><path style="opacity:1" fill="#9d9f9e" d="M 745.5,222.5 C 743.967,224.245 741.967,225.245 739.5,225.5C 741.033,223.755 743.033,222.755 745.5,222.5 Z"/></g>
<g><path style="opacity:1" fill="#a6a8a7" d="M 739.5,225.5 C 736.916,227.472 733.916,228.472 730.5,228.5C 733.145,226.69 736.145,225.69 739.5,225.5 Z"/></g>
<g><path style="opacity:1" fill="#9da09f" d="M 730.5,228.5 C 730.082,229.222 729.416,229.722 728.5,230C 724.83,230.548 721.163,231.048 717.5,231.5C 717.737,232.791 717.404,233.791 716.5,234.5C 716.5,233.167 716.5,231.833 716.5,230.5C 721.15,229.74 725.817,229.074 730.5,228.5 Z"/></g>
<g><path style="opacity:1" fill="#b5b7b7" d="M 716.5,235.5 C 716.664,238.187 716.497,240.854 716,243.5C 715.617,244.056 715.117,244.389 714.5,244.5C 714.676,241.273 715.343,238.273 716.5,235.5 Z"/></g>
<g><path style="opacity:1" fill="#434645" d="M 595.5,242.5 C 594.5,245.5 592.5,247.5 589.5,248.5C 591.167,246.167 593.167,244.167 595.5,242.5 Z"/></g>
<g><path style="opacity:1" fill="#909291" d="M 714.5,244.5 C 714.59,247.152 713.924,249.485 712.5,251.5C 712.41,248.848 713.076,246.515 714.5,244.5 Z"/></g>
<g><path style="opacity:1" fill="#989b9a" d="M 712.5,251.5 C 712.88,253.698 712.213,255.365 710.5,256.5C 710.796,254.597 711.463,252.93 712.5,251.5 Z"/></g>
<g><path style="opacity:1" fill="#585959" d="M 762.5,243.5 C 763.209,242.596 764.209,242.263 765.5,242.5C 765.5,283.167 765.5,323.833 765.5,364.5C 765.165,323.99 764.165,283.656 762.5,243.5 Z"/></g>
<g><path style="opacity:1" fill="#1a1a18" d="M 213.5,269.5 C 214.167,270.833 215.167,271.833 216.5,272.5C 216.427,274.027 217.094,275.027 218.5,275.5C 220.294,281.335 218.96,286.502 214.5,291C 205.516,295.845 198.683,293.678 194,284.5C 193.466,270.191 199.966,265.191 213.5,269.5 Z"/></g>
<g><path style="opacity:1" fill="#9d9d9b" d="M 213.5,269.5 C 215.5,269.5 216.5,270.5 216.5,272.5C 215.167,271.833 214.167,270.833 213.5,269.5 Z"/></g>
<g><path style="opacity:1" fill="#6b6d6c" d="M 706.5,267.5 C 706.573,269.027 705.906,270.027 704.5,270.5C 704.427,268.973 705.094,267.973 706.5,267.5 Z"/></g>
<g><path style="opacity:1" fill="#797977" d="M 216.5,272.5 C 217.906,272.973 218.573,273.973 218.5,275.5C 217.094,275.027 216.427,274.027 216.5,272.5 Z"/></g>
<g><path style="opacity:1" fill="#a0a2a1" d="M 704.5,272.5 C 703.564,275.671 701.897,278.338 699.5,280.5C 700.436,277.329 702.103,274.662 704.5,272.5 Z"/></g>
<g><path style="opacity:1" fill="#121513" d="M 692.5,68.5 C 700.167,68.5 707.833,68.5 715.5,68.5C 718.974,69.5249 722.64,70.1916 726.5,70.5C 727.568,71.4345 728.901,71.7678 730.5,71.5C 732.509,73.0652 734.843,74.0652 737.5,74.5C 739.687,75.758 742.02,76.758 744.5,77.5C 744.973,78.9063 745.973,79.573 747.5,79.5C 760.935,87.6009 771.268,98.6009 778.5,112.5C 778.427,114.027 779.094,115.027 780.5,115.5C 780.893,117.284 781.559,118.95 782.5,120.5C 782.41,123.152 783.076,125.485 784.5,127.5C 785.434,128.568 785.768,129.901 785.5,131.5C 785.41,134.152 786.076,136.485 787.5,138.5C 787.65,147.857 787.317,157.191 786.5,166.5C 785.076,168.515 784.41,170.848 784.5,173.5C 783.566,174.568 783.232,175.901 783.5,177.5C 781.926,179.102 781.259,181.102 781.5,183.5C 778.031,190.43 774.031,197.097 769.5,203.5C 765.5,206.833 761.833,210.5 758.5,214.5C 754.162,217.174 749.828,219.841 745.5,222.5C 743.033,222.755 741.033,223.755 739.5,225.5C 736.145,225.69 733.145,226.69 730.5,228.5C 725.817,229.074 721.15,229.74 716.5,230.5C 716.5,231.833 716.5,233.167 716.5,234.5C 716.5,234.833 716.5,235.167 716.5,235.5C 715.343,238.273 714.676,241.273 714.5,244.5C 713.076,246.515 712.41,248.848 712.5,251.5C 711.463,252.93 710.796,254.597 710.5,256.5C 709.314,260.258 707.981,263.925 706.5,267.5C 705.094,267.973 704.427,268.973 704.5,270.5C 704.5,271.167 704.5,271.833 704.5,272.5C 702.103,274.662 700.436,277.329 699.5,280.5C 697.147,282.86 695.147,285.527 693.5,288.5C 690.757,290.239 688.757,292.573 687.5,295.5C 662.833,319.5 638.5,343.833 614.5,368.5C 610.5,371.833 606.833,375.5 603.5,379.5C 595.14,387.528 586.807,395.528 578.5,403.5C 576.973,403.427 575.973,404.094 575.5,405.5C 564.103,411.622 551.77,414.955 538.5,415.5C 534.787,425.985 530.121,435.985 524.5,445.5C 522.738,446.262 521.738,447.596 521.5,449.5C 519.367,451.091 517.701,453.091 516.5,455.5C 513.5,457.833 510.833,460.5 508.5,463.5C 506.251,464.08 504.585,465.413 503.5,467.5C 499.9,469.11 496.566,471.11 493.5,473.5C 491.326,473.75 489.659,474.75 488.5,476.5C 487.209,476.263 486.209,476.596 485.5,477.5C 483.033,477.755 481.033,478.755 479.5,480.5C 477.708,480.366 476.042,480.699 474.5,481.5C 471.848,481.41 469.515,482.076 467.5,483.5C 466.167,483.5 464.833,483.5 463.5,483.5C 460.572,483.565 457.905,484.232 455.5,485.5C 447.833,485.5 440.167,485.5 432.5,485.5C 429.026,484.475 425.36,483.808 421.5,483.5C 406.524,480.845 393.19,474.678 381.5,465C 374.898,458.904 368.898,452.404 363.5,445.5C 363.573,443.973 362.906,442.973 361.5,442.5C 361.573,440.973 360.906,439.973 359.5,439.5C 357.128,434.098 354.795,428.765 352.5,423.5C 352.277,419.838 351.277,416.505 349.5,413.5C 349.5,412.833 349.5,412.167 349.5,411.5C 349.247,407.96 348.581,404.627 347.5,401.5C 346.133,390.78 346.466,380.113 348.5,369.5C 350.074,367.898 350.741,365.898 350.5,363.5C 357.043,340.392 370.376,322.392 390.5,309.5C 392.848,309.408 394.514,308.408 395.5,306.5C 397.027,306.573 398.027,305.906 398.5,304.5C 402.203,302.321 406.203,300.655 410.5,299.5C 413.152,299.59 415.485,298.924 417.5,297.5C 419.262,297.357 420.929,297.691 422.5,298.5C 424.556,296.981 426.89,296.147 429.5,296C 439.161,295.5 448.828,295.334 458.5,295.5C 459.5,295.5 460.5,295.5 461.5,295.5C 466.498,296.381 471.498,297.714 476.5,299.5C 481.08,301.694 485.746,303.694 490.5,305.5C 490.973,306.906 491.973,307.573 493.5,307.5C 495.663,309.083 497.996,310.416 500.5,311.5C 500.953,312.458 501.619,313.292 502.5,314C 504.5,314.167 506.5,314.333 508.5,314.5C 511.527,314.713 514.193,314.047 516.5,312.5C 522.884,310.141 528.884,306.974 534.5,303C 552.701,284.632 571.035,266.465 589.5,248.5C 592.5,247.5 594.5,245.5 595.5,242.5C 603.5,233.833 611.833,225.5 620.5,217.5C 622.544,216.969 624.211,215.802 625.5,214C 626.793,213.51 628.127,213.343 629.5,213.5C 635.113,217.48 640.113,222.146 644.5,227.5C 645.36,231.434 645.693,235.434 645.5,239.5C 644.588,241.595 643.421,243.595 642,245.5C 634.27,253.062 626.77,260.728 619.5,268.5C 606.219,280.114 593.552,292.447 581.5,305.5C 574.167,312.167 567.167,319.167 560.5,326.5C 557.167,329.167 554.167,332.167 551.5,335.5C 547.973,338.423 544.306,341.09 540.5,343.5C 537.843,343.935 535.509,344.935 533.5,346.5C 516.83,346.667 500.163,346.5 483.5,346C 468.728,332.927 451.728,328.094 432.5,331.5C 427.085,332.194 422.085,333.86 417.5,336.5C 415.326,336.75 413.659,337.75 412.5,339.5C 404.5,344.167 398.167,350.5 393.5,358.5C 391.75,359.659 390.75,361.326 390.5,363.5C 388.713,366.968 387.38,370.635 386.5,374.5C 384.926,376.102 384.259,378.102 384.5,380.5C 384.233,388.222 384.566,395.889 385.5,403.5C 385.41,406.152 386.076,408.485 387.5,410.5C 389.928,416.432 392.928,422.099 396.5,427.5C 397.833,430.833 400.167,433.167 403.5,434.5C 403.833,435.5 404.5,436.167 405.5,436.5C 405.973,437.906 406.973,438.573 408.5,438.5C 413.944,443.212 420.278,446.212 427.5,447.5C 428.609,448.29 429.942,448.79 431.5,449C 438.826,449.5 446.159,449.666 453.5,449.5C 456.522,449.196 459.522,448.696 462.5,448C 463.056,447.617 463.389,447.117 463.5,446.5C 487.145,437.184 500.145,419.85 502.5,394.5C 503.485,390.366 503.818,386.032 503.5,381.5C 515.678,381.828 527.678,381.495 539.5,380.5C 547.577,378.597 554.911,375.097 561.5,370C 575.672,356.661 589.672,343.161 603.5,329.5C 607.566,326.437 610.899,322.771 613.5,318.5C 614.833,317.833 615.833,316.833 616.5,315.5C 620.5,313.5 623.5,310.5 625.5,306.5C 640.798,290.701 656.298,275.035 672,259.5C 673.333,257.5 674.667,255.5 676,253.5C 677.613,247.973 679.446,242.64 681.5,237.5C 684.276,231.501 686.276,225.167 687.5,218.5C 687.5,218.167 687.5,217.833 687.5,217.5C 689.204,214.061 690.538,210.395 691.5,206.5C 692.15,204.565 692.483,202.565 692.5,200.5C 713.154,203.341 730.32,197.007 744,181.5C 752.487,169.556 755.987,156.223 754.5,141.5C 754.139,137.085 752.806,133.085 750.5,129.5C 750.573,127.973 749.906,126.973 748.5,126.5C 743.934,117.365 736.934,110.698 727.5,106.5C 725.824,104.166 723.491,103.166 720.5,103.5C 718.485,102.076 716.152,101.41 713.5,101.5C 712.167,101.5 710.833,101.5 709.5,101.5C 707.359,100.837 705.025,100.503 702.5,100.5C 698.859,100.315 695.526,100.981 692.5,102.5C 688.851,103.267 685.518,104.6 682.5,106.5C 678.951,107.723 675.951,109.723 673.5,112.5C 670.167,113.833 667.833,116.167 666.5,119.5C 662.99,122.358 660.657,126.024 659.5,130.5C 657.926,132.102 657.259,134.102 657.5,136.5C 656.833,136.5 656.5,136.833 656.5,137.5C 655.71,138.609 655.21,139.942 655,141.5C 654.501,145.821 654.334,150.154 654.5,154.5C 652.326,154.75 650.659,155.75 649.5,157.5C 638.573,162.296 628.24,168.13 618.5,175C 616.627,176.704 614.96,178.537 613.5,180.5C 610.5,181.5 608.5,183.5 607.5,186.5C 605.227,186.957 603.894,188.29 603.5,190.5C 599.833,192.167 597.167,194.833 595.5,198.5C 595.167,198.5 594.833,198.5 594.5,198.5C 594.014,196.193 594.014,194.027 594.5,192C 590.985,190.544 587.485,190.378 584,191.5C 583.782,194.426 583.282,197.26 582.5,200C 575.44,201.271 572.94,198.438 575,191.5C 576.356,190.62 577.856,190.286 579.5,190.5C 579.5,187.833 579.5,185.167 579.5,182.5C 576.5,182.5 573.5,182.5 570.5,182.5C 570.672,180.508 570.005,178.842 568.5,177.5C 569.981,176.056 569.648,175.389 567.5,175.5C 577.344,163.647 588.677,153.647 601.5,145.5C 606.129,144.519 610.129,142.519 613.5,139.5C 616.145,137.69 619.145,136.69 622.5,136.5C 622.366,134.708 622.699,133.042 623.5,131.5C 624.924,129.485 625.59,127.152 625.5,124.5C 628.254,116.432 632.254,109.098 637.5,102.5C 639.587,101.415 640.92,99.7488 641.5,97.5C 646.934,90.7274 653.267,85.0607 660.5,80.5C 662.027,80.573 663.027,79.9063 663.5,78.5C 669.901,74.4745 676.901,71.8079 684.5,70.5C 687.428,70.4349 690.095,69.7682 692.5,68.5 Z"/></g>
<g><path style="opacity:1" fill="#626463" d="M 644.5,227.5 C 645.117,227.611 645.617,227.944 646,228.5C 646.81,232.358 646.643,236.024 645.5,239.5C 645.693,235.434 645.36,231.434 644.5,227.5 Z"/></g>
<g><path style="opacity:1" fill="#505353" d="M 687.5,218.5 C 686.276,225.167 684.276,231.501 681.5,237.5C 682.724,230.833 684.724,224.499 687.5,218.5 Z"/></g>
<g><path style="opacity:1" fill="#9c9f9c" d="M 603.5,190.5 C 601.167,193.5 598.5,196.167 595.5,198.5C 597.167,194.833 599.833,192.167 603.5,190.5 Z"/></g>
<g><path style="opacity:1" fill="#9c9c9b" d="M 613.5,180.5 C 611.833,182.833 609.833,184.833 607.5,186.5C 608.5,183.5 610.5,181.5 613.5,180.5 Z"/></g>
<g><path style="opacity:1" fill="#989898" d="M 685.5,163.5 C 686.906,163.973 687.573,164.973 687.5,166.5C 686.094,166.027 685.427,165.027 685.5,163.5 Z"/></g>
<g><path style="opacity:1" fill="#a2a2a2" d="M 682.5,156.5 C 684.065,158.509 685.065,160.843 685.5,163.5C 683.166,161.824 682.166,159.491 682.5,156.5 Z"/></g>
<g><path style="opacity:1" fill="#a3a5a4" d="M 654.5,154.5 C 653.514,156.408 651.848,157.408 649.5,157.5C 650.659,155.75 652.326,154.75 654.5,154.5 Z"/></g>
<g><path style="opacity:1" fill="#90908f" d="M 683.5,142.5 C 682.771,147.13 682.437,151.797 682.5,156.5C 681.839,154.866 681.506,153.033 681.5,151C 681.36,147.85 682.027,145.017 683.5,142.5 Z"/></g>
<g><path style="opacity:1" fill="#7d7e7e" d="M 656.5,137.5 C 656.404,143.373 655.737,149.04 654.5,154.5C 654.334,150.154 654.501,145.821 655,141.5C 655.21,139.942 655.71,138.609 656.5,137.5 Z"/></g>
<g><path style="opacity:1" fill="#81817f" d="M 685.5,138.5 C 685.573,140.027 684.906,141.027 683.5,141.5C 683.427,139.973 684.094,138.973 685.5,138.5 Z"/></g>
<g><path style="opacity:1" fill="#5f605d" d="M 687.5,135.5 C 687.573,137.027 686.906,138.027 685.5,138.5C 685.427,136.973 686.094,135.973 687.5,135.5 Z"/></g>
<g><path style="opacity:1" fill="#b9baba" d="M 659.5,130.5 C 659.741,132.898 659.074,134.898 657.5,136.5C 657.259,134.102 657.926,132.102 659.5,130.5 Z"/></g>
<g><path style="opacity:1" fill="#8b8b8b" d="M 750.5,129.5 C 752.806,133.085 754.139,137.085 754.5,141.5C 752.589,137.767 751.256,133.767 750.5,129.5 Z"/></g>
<g><path style="opacity:1" fill="#8f8f8f" d="M 713.5,128.5 C 715.027,128.427 716.027,129.094 716.5,130.5C 714.973,130.573 713.973,129.906 713.5,128.5 Z"/></g>
<g><path style="opacity:1" fill="#131514" d="M 713.5,128.5 C 713.973,129.906 714.973,130.573 716.5,130.5C 729.475,139.396 731.975,150.729 724,164.5C 712.255,176.832 700.088,177.498 687.5,166.5C 687.573,164.973 686.906,163.973 685.5,163.5C 685.065,160.843 684.065,158.509 682.5,156.5C 682.437,151.797 682.771,147.13 683.5,142.5C 683.5,142.167 683.5,141.833 683.5,141.5C 684.906,141.027 685.573,140.027 685.5,138.5C 686.906,138.027 687.573,137.027 687.5,135.5C 688.911,133.086 690.911,131.419 693.5,130.5C 695.027,130.573 696.027,129.906 696.5,128.5C 702.145,127.284 707.812,127.284 713.5,128.5 Z"/></g>
<g><path style="opacity:1" fill="#737473" d="M 696.5,128.5 C 696.027,129.906 695.027,130.573 693.5,130.5C 693.973,129.094 694.973,128.427 696.5,128.5 Z"/></g>
<g><path style="opacity:1" fill="#898c89" d="M 748.5,126.5 C 749.906,126.973 750.573,127.973 750.5,129.5C 749.094,129.027 748.427,128.027 748.5,126.5 Z"/></g>
<g><path style="opacity:1" fill="#a4a6a5" d="M 673.5,112.5 C 671.5,115.167 669.167,117.5 666.5,119.5C 667.833,116.167 670.167,113.833 673.5,112.5 Z"/></g>
<g><path style="opacity:1" fill="#565956" d="M 720.5,103.5 C 723.491,103.166 725.824,104.166 727.5,106.5C 724.843,106.065 722.509,105.065 720.5,103.5 Z"/></g>
<g><path style="opacity:1" fill="#b9bcbb" d="M 692.5,102.5 C 693.167,102.5 693.833,102.5 694.5,102.5C 690.767,104.411 686.767,105.744 682.5,106.5C 685.518,104.6 688.851,103.267 692.5,102.5 Z"/></g>
<g><path style="opacity:1" fill="#565857" d="M 713.5,101.5 C 716.152,101.41 718.485,102.076 720.5,103.5C 717.848,103.59 715.515,102.924 713.5,101.5 Z"/></g>
<g><path style="opacity:1" fill="#4a4c4c" d="M 709.5,101.5 C 704.438,101.274 699.438,101.608 694.5,102.5C 693.833,102.5 693.167,102.5 692.5,102.5C 695.526,100.981 698.859,100.315 702.5,100.5C 705.025,100.503 707.359,100.837 709.5,101.5 Z"/></g>
<g><path style="opacity:1" fill="#999b9b" d="M 304.5,278.5 C 303.92,280.749 302.587,282.415 300.5,283.5C 301.08,281.251 302.413,279.585 304.5,278.5 Z"/></g>
<g><path style="opacity:1" fill="#b4b5b4" d="M 619.5,268.5 C 607.448,281.553 594.781,293.886 581.5,305.5C 593.552,292.447 606.219,280.114 619.5,268.5 Z"/></g>
<g><path style="opacity:1" fill="#9da09f" d="M 300.5,283.5 C 300.573,285.027 299.906,286.027 298.5,286.5C 298.427,284.973 299.094,283.973 300.5,283.5 Z"/></g>
<g><path style="opacity:1" fill="#9a9c9b" d="M 693.5,288.5 C 692.243,291.427 690.243,293.761 687.5,295.5C 688.757,292.573 690.757,290.239 693.5,288.5 Z"/></g>
<g><path style="opacity:1" fill="#b6b8b7" d="M 296.5,289.5 C 295.702,291.966 294.369,293.966 292.5,295.5C 292.845,292.802 294.178,290.802 296.5,289.5 Z"/></g>
<g><path style="opacity:1" fill="#424542" d="M 458.5,295.5 C 448.828,295.334 439.161,295.5 429.5,296C 426.89,296.147 424.556,296.981 422.5,298.5C 420.929,297.691 419.262,297.357 417.5,297.5C 430.996,293.079 444.662,292.412 458.5,295.5 Z"/></g>
<g><path style="opacity:1" fill="#9ea09f" d="M 461.5,295.5 C 467.174,294.844 472.174,296.177 476.5,299.5C 471.498,297.714 466.498,296.381 461.5,295.5 Z"/></g>
<g><path style="opacity:1" fill="#9b9e9d" d="M 292.5,295.5 C 292.573,297.027 291.906,298.027 290.5,298.5C 290.427,296.973 291.094,295.973 292.5,295.5 Z"/></g>
<g><path style="opacity:1" fill="#595b58" d="M 417.5,297.5 C 415.485,298.924 413.152,299.59 410.5,299.5C 412.515,298.076 414.848,297.41 417.5,297.5 Z"/></g>
<g><path style="opacity:1" fill="#929493" d="M 289.5,300.5 C 289.573,302.027 288.906,303.027 287.5,303.5C 287.427,301.973 288.094,300.973 289.5,300.5 Z"/></g>
<g><path style="opacity:1" fill="#6d6f6c" d="M 398.5,304.5 C 398.027,305.906 397.027,306.573 395.5,306.5C 395.973,305.094 396.973,304.427 398.5,304.5 Z"/></g>
<g><path style="opacity:1" fill="#848784" d="M 490.5,305.5 C 492.027,305.427 493.027,306.094 493.5,307.5C 491.973,307.573 490.973,306.906 490.5,305.5 Z"/></g>
<g><path style="opacity:1" fill="#505350" d="M 395.5,306.5 C 394.514,308.408 392.848,309.408 390.5,309.5C 391.659,307.75 393.326,306.75 395.5,306.5 Z"/></g>
<g><path style="opacity:1" fill="#464847" d="M 625.5,306.5 C 623.5,310.5 620.5,313.5 616.5,315.5C 619.167,312.167 622.167,309.167 625.5,306.5 Z"/></g>
<g><path style="opacity:1" fill="#a4a6a5" d="M 287.5,303.5 C 286.201,308.764 283.868,313.431 280.5,317.5C 281.799,312.236 284.132,307.569 287.5,303.5 Z"/></g>
<g><path style="opacity:1" fill="#656968" d="M 500.5,311.5 C 505.61,313.8 510.944,314.134 516.5,312.5C 514.193,314.047 511.527,314.713 508.5,314.5C 506.5,314.333 504.5,314.167 502.5,314C 501.619,313.292 500.953,312.458 500.5,311.5 Z"/></g>
<g><path style="opacity:1" fill="#adaeae" d="M 280.5,317.5 C 280.834,320.491 279.834,322.824 277.5,324.5C 277.935,321.843 278.935,319.509 280.5,317.5 Z"/></g>
<g><path style="opacity:1" fill="#444745" d="M 239.5,321.5 C 201.847,323.329 163.847,324.162 125.5,324C 124.756,325.039 123.756,325.539 122.5,325.5C 122.953,324.542 123.619,323.708 124.5,323C 162.904,322.827 201.238,322.327 239.5,321.5 Z"/></g>
<g><path style="opacity:1" fill="#121412" d="M 503.5,70.5 C 504.155,108.294 504.821,145.961 505.5,183.5C 507.509,185.065 509.843,186.065 512.5,186.5C 520.536,189.854 528.536,193.188 536.5,196.5C 538.164,197.999 540.164,198.999 542.5,199.5C 543.713,199.253 544.38,198.586 544.5,197.5C 552.167,190.167 559.833,182.833 567.5,175.5C 569.648,175.389 569.981,176.056 568.5,177.5C 570.005,178.842 570.672,180.508 570.5,182.5C 573.5,182.5 576.5,182.5 579.5,182.5C 579.5,185.167 579.5,187.833 579.5,190.5C 577.856,190.286 576.356,190.62 575,191.5C 572.94,198.438 575.44,201.271 582.5,200C 583.282,197.26 583.782,194.426 584,191.5C 587.485,190.378 590.985,190.544 594.5,192C 594.014,194.027 594.014,196.193 594.5,198.5C 594.5,198.833 594.5,199.167 594.5,199.5C 589.56,202.77 585.227,206.77 581.5,211.5C 579.167,213.167 577.167,215.167 575.5,217.5C 566.155,226.845 556.488,235.845 546.5,244.5C 537.467,238.65 528.134,233.317 518.5,228.5C 518.027,227.094 517.027,226.427 515.5,226.5C 514.833,226.5 514.167,226.5 513.5,226.5C 513.027,225.094 512.027,224.427 510.5,224.5C 506.49,223.16 502.49,221.826 498.5,220.5C 495.746,219.054 492.746,218.054 489.5,217.5C 482.141,216.195 474.808,214.695 467.5,213C 464.906,210.914 462.906,208.414 461.5,205.5C 461.667,179.831 461.5,154.165 461,128.5C 460.623,127.058 459.79,126.058 458.5,125.5C 458.573,123.973 457.906,122.973 456.5,122.5C 455.57,118.907 453.237,117.241 449.5,117.5C 445.833,117.5 442.167,117.5 438.5,117.5C 436.973,117.427 435.973,118.094 435.5,119.5C 432.478,120.522 430.478,122.522 429.5,125.5C 428.442,126.6 427.608,127.934 427,129.5C 426.5,154.831 426.333,180.164 426.5,205.5C 426.5,205.833 426.5,206.167 426.5,206.5C 425.623,208.728 424.29,210.728 422.5,212.5C 417.046,213.508 411.712,214.508 406.5,215.5C 403.848,215.41 401.515,216.076 399.5,217.5C 394.278,218.055 389.278,219.388 384.5,221.5C 382.033,221.755 380.033,222.755 378.5,224.5C 374.764,224.541 371.764,225.874 369.5,228.5C 365.164,228.837 361.497,230.504 358.5,233.5C 354.164,235.332 350.164,237.665 346.5,240.5C 344.251,241.08 342.585,242.413 341.5,244.5C 339.068,245.75 336.734,247.25 334.5,249C 332.5,249.667 330.5,249.667 328.5,249C 325.368,245.855 322.368,242.688 319.5,239.5C 318.833,238.167 317.833,237.167 316.5,236.5C 301.395,221.226 286.395,205.726 271.5,190C 269.133,188.155 266.467,186.989 263.5,186.5C 259.71,185.098 256.044,185.431 252.5,187.5C 249.911,188.419 247.911,190.086 246.5,192.5C 245.094,192.973 244.427,193.973 244.5,195.5C 242.967,197.634 242.3,200.134 242.5,203C 242.506,205.033 242.839,206.866 243.5,208.5C 244.64,210.78 245.807,213.114 247,215.5C 266,235.167 285,254.833 304,274.5C 304.49,275.793 304.657,277.127 304.5,278.5C 302.413,279.585 301.08,281.251 300.5,283.5C 299.094,283.973 298.427,284.973 298.5,286.5C 297.094,286.973 296.427,287.973 296.5,289.5C 294.178,290.802 292.845,292.802 292.5,295.5C 291.094,295.973 290.427,296.973 290.5,298.5C 289.662,298.842 289.328,299.508 289.5,300.5C 288.094,300.973 287.427,301.973 287.5,303.5C 284.132,307.569 281.799,312.236 280.5,317.5C 278.935,319.509 277.935,321.843 277.5,324.5C 275.041,330.665 273.041,336.999 271.5,343.5C 270.076,345.515 269.41,347.848 269.5,350.5C 269.173,355.818 267.839,360.818 265.5,365.5C 264.378,366.63 263.044,367.297 261.5,367.5C 233.831,367.333 206.165,367.5 178.5,368C 177.058,368.377 176.058,369.21 175.5,370.5C 173.167,370.833 171.833,372.167 171.5,374.5C 170.094,374.973 169.427,375.973 169.5,377.5C 166.292,387.641 169.292,395.808 178.5,402C 206.209,402.183 233.875,402.683 261.5,403.5C 262.833,405.5 264.5,407.167 266.5,408.5C 268.011,410.476 268.844,412.809 269,415.5C 270.942,434.992 275.942,453.658 284,471.5C 289.339,482.185 295.172,492.518 301.5,502.5C 301.649,503.552 301.483,504.552 301,505.5C 292.298,514.035 283.798,522.702 275.5,531.5C 271.833,534.5 268.5,537.833 265.5,541.5C 263.167,543.167 261.167,545.167 259.5,547.5C 253.837,552.33 248.67,557.663 244,563.5C 242.48,567.375 242.146,571.375 243,575.5C 248.189,589.513 257.355,593.013 270.5,586C 285.756,570.911 300.756,555.745 315.5,540.5C 318.5,539.5 320.5,537.5 321.5,534.5C 323.839,530.825 327.172,528.825 331.5,528.5C 332.585,530.587 334.251,531.92 336.5,532.5C 336.833,533.5 337.5,534.167 338.5,534.5C 338.973,535.906 339.973,536.573 341.5,536.5C 343.147,538.326 345.147,539.66 347.5,540.5C 347.973,541.906 348.973,542.573 350.5,542.5C 353.999,544.75 357.665,546.75 361.5,548.5C 363.033,550.245 365.033,551.245 367.5,551.5C 369.509,553.065 371.843,554.065 374.5,554.5C 381.079,557.804 388.079,560.138 395.5,561.5C 399.355,564.035 403.688,565.035 408.5,564.5C 410.838,566.04 413.505,566.706 416.5,566.5C 421.444,567.735 424.944,570.735 427,575.5C 427.333,600.5 427.667,625.5 428,650.5C 432.975,662.757 441.475,665.923 453.5,660C 457.475,657.584 459.975,654.084 461,649.5C 461.333,623.833 461.667,598.167 462,572.5C 463.704,570.627 465.537,568.96 467.5,567.5C 472.079,567.064 476.413,566.064 480.5,564.5C 490.859,563.077 500.859,560.411 510.5,556.5C 512.153,556.34 513.486,555.674 514.5,554.5C 529.845,547.991 544.179,539.658 557.5,529.5C 559.167,529.5 560.833,529.5 562.5,529.5C 581.021,548.187 599.354,567.02 617.5,586C 630.575,591.195 640.075,587.361 646,574.5C 647.007,569.889 646.34,565.555 644,561.5C 625.907,542.911 608.074,524.245 590.5,505.5C 590.629,503.784 590.962,502.117 591.5,500.5C 594.487,494.527 597.487,488.527 600.5,482.5C 601.906,482.027 602.573,481.027 602.5,479.5C 602.557,478.391 602.89,477.391 603.5,476.5C 604.906,476.027 605.573,475.027 605.5,473.5C 605.833,472.167 606.167,470.833 606.5,469.5C 607.906,469.027 608.573,468.027 608.5,466.5C 610.369,460.892 612.036,455.225 613.5,449.5C 615.097,447.152 616.097,444.486 616.5,441.5C 617.51,437.385 618.51,433.385 619.5,429.5C 621.421,423.777 622.421,417.777 622.5,411.5C 623.167,410.167 624.167,409.167 625.5,408.5C 627.882,406.954 630.549,406.287 633.5,406.5C 635.713,407.773 638.046,408.773 640.5,409.5C 644.639,412.072 648.973,414.405 653.5,416.5C 655.226,418.82 655.893,421.487 655.5,424.5C 655.5,425.833 655.5,427.167 655.5,428.5C 653.862,433.248 652.862,438.248 652.5,443.5C 651.85,445.435 651.517,447.435 651.5,449.5C 650.076,451.515 649.41,453.848 649.5,456.5C 647.192,464.377 644.859,472.377 642.5,480.5C 641.094,480.973 640.427,481.973 640.5,483.5C 640.443,484.609 640.11,485.609 639.5,486.5C 637.149,488.417 637.149,490.084 639.5,491.5C 664.5,517.5 689.5,543.5 714.5,569.5C 714.632,572.57 714.299,575.57 713.5,578.5C 702.312,589.522 690.979,600.355 679.5,611C 669.081,622.752 657.915,633.919 646,644.5C 645.536,645.094 645.369,645.761 645.5,646.5C 642.833,647.167 641.167,648.833 640.5,651.5C 638.246,652.124 636.579,653.457 635.5,655.5C 632.57,656.299 629.57,656.632 626.5,656.5C 611.446,642.113 596.779,627.446 582.5,612.5C 581.833,611.167 580.833,610.167 579.5,609.5C 570.554,599.887 561.221,590.554 551.5,581.5C 550.809,579.978 549.642,578.978 548,578.5C 545.216,579.473 542.716,580.806 540.5,582.5C 538.033,582.755 536.033,583.755 534.5,585.5C 531.843,585.935 529.509,586.935 527.5,588.5C 523.099,589.406 519.099,591.072 515.5,593.5C 514.833,593.5 514.167,593.5 513.5,593.5C 510.56,594.202 507.727,595.202 505,596.5C 504.5,633.165 504.333,669.832 504.5,706.5C 504.5,707.167 504.167,707.5 503.5,707.5C 503.333,560.835 502.833,560.835 502,707.5C 501.667,682.833 501.333,658.167 501,633.5C 500.5,647.496 500.333,661.496 500.5,675.5C 499.5,675.5 498.5,675.5 497.5,675.5C 497.5,661.167 497.5,646.833 497.5,632.5C 494.5,632.5 491.5,632.5 488.5,632.5C 488.5,623.833 488.5,615.167 488.5,606.5C 485.833,606.5 483.167,606.5 480.5,606.5C 480.5,615.167 480.5,623.833 480.5,632.5C 479.167,632.5 477.833,632.5 476.5,632.5C 476.5,637.833 476.5,643.167 476.5,648.5C 477.833,648.5 479.167,648.5 480.5,648.5C 481.401,652.241 480.068,654.241 476.5,654.5C 476.5,656.833 476.5,659.167 476.5,661.5C 477.833,661.5 479.167,661.5 480.5,661.5C 480.5,663.167 480.5,664.833 480.5,666.5C 474.833,666.5 469.167,666.5 463.5,666.5C 463.808,672.425 463.475,678.259 462.5,684C 443.971,684.305 425.471,684.471 407,684.5C 403.672,684.839 401.839,683.339 401.5,680C 400.207,679.51 398.873,679.343 397.5,679.5C 397.5,678.167 397.5,676.833 397.5,675.5C 396.5,675.5 395.5,675.5 394.5,675.5C 394.832,685.19 394.498,694.856 393.5,704.5C 392.742,705.811 391.742,706.311 390.5,706C 389.119,699.98 388.453,700.147 388.5,706.5C 386.821,706.285 385.821,706.952 385.5,708.5C 385.167,708.5 384.833,708.5 384.5,708.5C 384.672,707.508 384.338,706.842 383.5,706.5C 383.5,669.833 383.5,633.167 383.5,596.5C 382.5,596.5 381.5,596.5 380.5,596.5C 380.5,596.167 380.5,595.833 380.5,595.5C 378.898,593.926 376.898,593.259 374.5,593.5C 362.879,589.353 351.879,584.186 341.5,578C 315.632,603.701 289.965,629.535 264.5,655.5C 260.901,656.344 257.234,656.677 253.5,656.5C 227.724,630.393 202.058,604.393 176.5,578.5C 176.573,576.973 175.906,575.973 174.5,575.5C 174.336,572.813 174.503,570.146 175,567.5C 200.368,541.965 225.868,516.632 251.5,491.5C 252.867,488.988 252.534,486.655 250.5,484.5C 250.065,481.843 249.065,479.509 247.5,477.5C 246.766,476.292 246.433,474.959 246.5,473.5C 246.204,471.597 245.537,469.93 244.5,468.5C 244.5,468.167 244.5,467.833 244.5,467.5C 244.065,464.843 243.065,462.509 241.5,460.5C 241.118,455.908 240.118,451.575 238.5,447.5C 201.181,445.506 163.515,444.839 125.5,445.5C 123.748,443.754 122.415,441.754 121.5,439.5C 121.179,401.457 121.512,363.457 122.5,325.5C 123.756,325.539 124.756,325.039 125.5,324C 163.847,324.162 201.847,323.329 239.5,321.5C 243.238,308.52 248.238,296.02 254.5,284C 227.543,256.546 200.876,229.046 174.5,201.5C 174.401,198.763 174.735,196.096 175.5,193.5C 177.167,191.167 179.167,189.167 181.5,187.5C 186.167,184.833 189.833,181.167 192.5,176.5C 195.5,174.167 198.167,171.5 200.5,168.5C 203.427,167.243 205.761,165.243 207.5,162.5C 209.354,159.49 211.687,156.824 214.5,154.5C 218.5,152.5 221.5,149.5 223.5,145.5C 232.167,136.167 241.167,127.167 250.5,118.5C 254.5,117.167 258.5,117.167 262.5,118.5C 288.939,145.775 315.272,173.275 341.5,201C 344.042,201.007 346.376,200.174 348.5,198.5C 350.027,198.573 351.027,197.906 351.5,196.5C 361.604,191.13 372.27,187.13 383.5,184.5C 383.333,146.499 383.5,108.499 384,70.5C 385.5,69 387,67.5 388.5,66C 425.505,65.1667 462.505,65.3334 499.5,66.5C 501.188,67.5213 502.521,68.8546 503.5,70.5 Z"/></g>
<g><path style="opacity:1" fill="#bababa" d="M 346.5,240.5 C 345.415,242.587 343.749,243.92 341.5,244.5C 342.585,242.413 344.251,241.08 346.5,240.5 Z"/></g>
<g><path style="opacity:1" fill="#9f9f9f" d="M 316.5,236.5 C 317.833,237.167 318.833,238.167 319.5,239.5C 317.5,239.5 316.5,238.5 316.5,236.5 Z"/></g>
<g><path style="opacity:1" fill="#c0c2c2" d="M 369.5,228.5 C 366.202,230.983 362.535,232.649 358.5,233.5C 361.497,230.504 365.164,228.837 369.5,228.5 Z"/></g>
<g><path style="opacity:1" fill="#6c6e6e" d="M 515.5,226.5 C 517.027,226.427 518.027,227.094 518.5,228.5C 516.973,228.573 515.973,227.906 515.5,226.5 Z"/></g>
<g><path style="opacity:1" fill="#878786" d="M 510.5,224.5 C 512.027,224.427 513.027,225.094 513.5,226.5C 511.973,226.573 510.973,225.906 510.5,224.5 Z"/></g>
<g><path style="opacity:1" fill="#a4a5a5" d="M 384.5,221.5 C 382.967,223.245 380.967,224.245 378.5,224.5C 380.033,222.755 382.033,221.755 384.5,221.5 Z"/></g>
<g><path style="opacity:1" fill="#9d9f9e" d="M 489.5,217.5 C 492.746,218.054 495.746,219.054 498.5,220.5C 495.008,220.554 492.008,219.554 489.5,217.5 Z"/></g>
<g><path style="opacity:1" fill="#adafae" d="M 406.5,215.5 C 404.485,216.924 402.152,217.59 399.5,217.5C 401.515,216.076 403.848,215.41 406.5,215.5 Z"/></g>
<g><path style="opacity:1" fill="#b3b6b5" d="M 426.5,206.5 C 427.109,209.878 425.776,211.878 422.5,212.5C 424.29,210.728 425.623,208.728 426.5,206.5 Z"/></g>
<g><path style="opacity:1" fill="#90918f" d="M 244.5,195.5 C 243.8,199.798 243.467,204.131 243.5,208.5C 242.839,206.866 242.506,205.033 242.5,203C 242.3,200.134 242.967,197.634 244.5,195.5 Z"/></g>
<g><path style="opacity:1" fill="#b3b5b4" d="M 536.5,196.5 C 539.167,196.833 541.833,197.167 544.5,197.5C 544.38,198.586 543.713,199.253 542.5,199.5C 540.164,198.999 538.164,197.999 536.5,196.5 Z"/></g>
<g><path style="opacity:1" fill="#7a7d7c" d="M 351.5,196.5 C 351.027,197.906 350.027,198.573 348.5,198.5C 348.973,197.094 349.973,196.427 351.5,196.5 Z"/></g>
<g><path style="opacity:1" fill="#969896" d="M 246.5,192.5 C 246.573,194.027 245.906,195.027 244.5,195.5C 244.427,193.973 245.094,192.973 246.5,192.5 Z"/></g>
<g><path style="opacity:1" fill="#a4a6a6" d="M 263.5,186.5 C 259.802,186.552 256.135,186.886 252.5,187.5C 256.044,185.431 259.71,185.098 263.5,186.5 Z"/></g>
<g><path style="opacity:1" fill="#a8aba8" d="M 505.5,183.5 C 508.491,183.166 510.824,184.166 512.5,186.5C 509.843,186.065 507.509,185.065 505.5,183.5 Z"/></g>
<g><path style="opacity:1" fill="#b2b4b3" d="M 429.5,125.5 C 429.205,152.496 428.205,179.163 426.5,205.5C 426.333,180.164 426.5,154.831 427,129.5C 427.608,127.934 428.442,126.6 429.5,125.5 Z"/></g>
<g><path style="opacity:1" fill="#a8a8a8" d="M 356.5,165.5 C 356.119,166.931 355.119,167.764 353.5,168C 350.304,168.805 347.304,168.638 344.5,167.5C 347.304,168.638 350.304,168.805 353.5,168C 355.119,167.764 356.119,166.931 356.5,165.5 Z"/></g>
<g><path style="opacity:1" fill="#606060" d="M 359.5,148.5 C 360.117,148.611 360.617,148.944 361,149.5C 361.81,153.358 361.643,157.024 360.5,160.5C 360.693,156.434 360.36,152.434 359.5,148.5 Z"/></g>
<g><path style="opacity:1" fill="#333433" d="M 353.5,142.5 C 353.5,142.833 353.5,143.167 353.5,143.5C 350.15,143.335 346.817,143.502 343.5,144C 341.996,145.491 341.163,147.324 341,149.5C 340,148.167 339,148.167 338,149.5C 337.502,152.817 337.335,156.15 337.5,159.5C 334.953,152.788 336.62,147.288 342.5,143C 346.152,142.501 349.818,142.335 353.5,142.5 Z"/></g>
<g><path style="opacity:1" fill="#9b9b9b" d="M 353.5,143.5 C 353.5,143.167 353.5,142.833 353.5,142.5C 355.027,142.427 356.027,143.094 356.5,144.5C 355.391,144.443 354.391,144.11 353.5,143.5 Z"/></g>
<g><path style="opacity:1" fill="#151715" d="M 353.5,143.5 C 354.391,144.11 355.391,144.443 356.5,144.5C 357.5,145.833 358.5,147.167 359.5,148.5C 360.36,152.434 360.693,156.434 360.5,160.5C 359.197,162.142 357.864,163.809 356.5,165.5C 352.7,167.143 348.7,167.81 344.5,167.5C 340.792,166.113 338.459,163.446 337.5,159.5C 337.335,156.15 337.502,152.817 338,149.5C 339,148.167 340,148.167 341,149.5C 341.163,147.324 341.996,145.491 343.5,144C 346.817,143.502 350.15,143.335 353.5,143.5 Z"/></g>
<g><path style="opacity:1" fill="#a1a1a1" d="M 458.5,125.5 C 459.79,126.058 460.623,127.058 461,128.5C 461.5,154.165 461.667,179.831 461.5,205.5C 460.668,181.337 460.168,157.003 460,132.5C 459.56,130.134 459.06,127.801 458.5,125.5 Z"/></g>
<g><path style="opacity:1" fill="#525452" d="M 449.5,117.5 C 453.237,117.241 455.57,118.907 456.5,122.5C 454.4,120.384 452.067,118.717 449.5,117.5 Z"/></g>
<g><path style="opacity:1" fill="#999c9b" d="M 438.5,117.5 C 438.027,118.906 437.027,119.573 435.5,119.5C 435.973,118.094 436.973,117.427 438.5,117.5 Z"/></g>
<g><path style="opacity:1" fill="#535554" d="M 613.5,318.5 C 610.899,322.771 607.566,326.437 603.5,329.5C 606.101,325.229 609.434,321.563 613.5,318.5 Z"/></g>
<g><path style="opacity:1" fill="#bbbcbb" d="M 560.5,326.5 C 558.5,330.5 555.5,333.5 551.5,335.5C 554.167,332.167 557.167,329.167 560.5,326.5 Z"/></g>
<g><path style="opacity:1" fill="#4e4e4e" d="M 122.5,325.5 C 121.512,363.457 121.179,401.457 121.5,439.5C 120.336,402.002 120.169,364.336 121,326.5C 121.383,325.944 121.883,325.611 122.5,325.5 Z"/></g>
<g><path style="opacity:1" fill="#b6b9b6" d="M 432.5,331.5 C 427.767,333.744 422.767,335.411 417.5,336.5C 422.085,333.86 427.085,332.194 432.5,331.5 Z"/></g>
<g><path style="opacity:1" fill="#a8a9a8" d="M 417.5,336.5 C 416.514,338.408 414.848,339.408 412.5,339.5C 413.659,337.75 415.326,336.75 417.5,336.5 Z"/></g>
<g><path style="opacity:1" fill="#434645" d="M 735.5,262.5 C 735.217,263.289 734.717,263.956 734,264.5C 733.667,297.833 733.333,331.167 733,364.5C 732.617,365.056 732.117,365.389 731.5,365.5C 731.333,331.832 731.5,298.165 732,264.5C 732.816,263.177 733.983,262.511 735.5,262.5 Z"/></g>
<g><path style="opacity:1" fill="#aeafaf" d="M 540.5,343.5 C 538.824,345.834 536.491,346.834 533.5,346.5C 535.509,344.935 537.843,343.935 540.5,343.5 Z"/></g>
<g><path style="opacity:1" fill="#7b7d7c" d="M 271.5,343.5 C 271.59,346.152 270.924,348.485 269.5,350.5C 269.41,347.848 270.076,345.515 271.5,343.5 Z"/></g>
<g><path style="opacity:1" fill="#111413" d="M 762.5,243.5 C 764.165,283.656 765.165,323.99 765.5,364.5C 768.547,366.918 770.88,369.918 772.5,373.5C 774.748,379.259 775.748,385.259 775.5,391.5C 774.169,394.829 772.836,398.162 771.5,401.5C 769.5,402.833 767.833,404.5 766.5,406.5C 764.973,406.427 763.973,407.094 763.5,408.5C 760.079,410.376 756.412,411.376 752.5,411.5C 747.346,411.706 742.346,411.039 737.5,409.5C 735.031,408.431 732.698,407.098 730.5,405.5C 729.92,403.251 728.587,401.585 726.5,400.5C 720.822,389.589 721.322,378.923 728,368.5C 729.039,367.29 730.206,366.29 731.5,365.5C 732.117,365.389 732.617,365.056 733,364.5C 733.333,331.167 733.667,297.833 734,264.5C 734.717,263.956 735.217,263.289 735.5,262.5C 744.638,256.425 753.638,250.092 762.5,243.5 Z"/></g>
<g><path style="opacity:1" fill="#afb1b0" d="M 393.5,358.5 C 393.408,360.848 392.408,362.514 390.5,363.5C 390.75,361.326 391.75,359.659 393.5,358.5 Z"/></g>
<g><path style="opacity:1" fill="#aeb0b0" d="M 261.5,367.5 C 234.67,368.332 207.67,368.832 180.5,369C 178.846,369.608 177.179,370.108 175.5,370.5C 176.058,369.21 177.058,368.377 178.5,368C 206.165,367.5 233.831,367.333 261.5,367.5 Z"/></g>
<g><path style="opacity:1" fill="#989b98" d="M 350.5,363.5 C 350.741,365.898 350.074,367.898 348.5,369.5C 348.259,367.102 348.926,365.102 350.5,363.5 Z"/></g>
<g><path style="opacity:1" fill="#121413" d="M 450.5,419.5 C 445.77,419.717 441.103,419.383 436.5,418.5C 434.898,416.926 432.898,416.259 430.5,416.5C 425.848,413.514 421.848,409.847 418.5,405.5C 417.871,402.603 416.871,399.936 415.5,397.5C 414.222,392.865 414.222,388.198 415.5,383.5C 417.074,381.898 417.741,379.898 417.5,377.5C 426.279,361.626 439.279,357.126 456.5,364C 475.115,375.08 478.615,389.913 467,408.5C 462.346,413.567 456.846,417.234 450.5,419.5 Z"/></g>
<g><path style="opacity:1" fill="#161717" d="M 685.5,372.5 C 686.167,372.5 686.833,372.5 687.5,372.5C 687.973,373.906 688.973,374.573 690.5,374.5C 696,381.703 695.666,388.703 689.5,395.5C 686.302,396.787 682.969,397.453 679.5,397.5C 677.192,396.207 674.858,394.874 672.5,393.5C 671.143,392.41 670.143,391.076 669.5,389.5C 668.676,386.236 668.342,382.902 668.5,379.5C 668.5,378.833 668.833,378.5 669.5,378.5C 671.63,376.873 673.63,375.04 675.5,373C 678.817,372.502 682.15,372.335 685.5,372.5 Z"/></g>
<g><path style="opacity:1" fill="#919192" d="M 687.5,372.5 C 689.027,372.427 690.027,373.094 690.5,374.5C 688.973,374.573 687.973,373.906 687.5,372.5 Z"/></g>
<g><path style="opacity:1" fill="#c9cac9" d="M 614.5,368.5 C 611.833,373.167 608.167,376.833 603.5,379.5C 606.833,375.5 610.5,371.833 614.5,368.5 Z"/></g>
<g><path style="opacity:1" fill="#5d5d5d" d="M 685.5,372.5 C 682.15,372.335 678.817,372.502 675.5,373C 673.63,375.04 671.63,376.873 669.5,378.5C 673.026,371.107 678.359,369.107 685.5,372.5 Z"/></g>
<g><path style="opacity:1" fill="#9b9e9d" d="M 171.5,374.5 C 171.573,376.027 170.906,377.027 169.5,377.5C 169.427,375.973 170.094,374.973 171.5,374.5 Z"/></g>
<g><path style="opacity:1" fill="#6c6e6b" d="M 386.5,374.5 C 386.741,376.898 386.074,378.898 384.5,380.5C 384.259,378.102 384.926,376.102 386.5,374.5 Z"/></g>
<g><path style="opacity:1" fill="#8d8f8e" d="M 539.5,380.5 C 527.678,381.495 515.678,381.828 503.5,381.5C 503.818,386.032 503.485,390.366 502.5,394.5C 502.5,389.833 502.5,385.167 502.5,380.5C 514.833,380.5 527.167,380.5 539.5,380.5 Z"/></g>
<g><path style="opacity:1" fill="#5a5b5b" d="M 417.5,377.5 C 417.741,379.898 417.074,381.898 415.5,383.5C 415.259,381.102 415.926,379.102 417.5,377.5 Z"/></g>
<g><path style="opacity:1" fill="#a5a6a6" d="M 668.5,379.5 C 668.342,382.902 668.676,386.236 669.5,389.5C 668.883,389.389 668.383,389.056 668,388.5C 667.195,385.304 667.362,382.304 668.5,379.5 Z"/></g>
<g><path style="opacity:1" fill="#727272" d="M 772.5,373.5 C 776.367,379.063 777.367,385.063 775.5,391.5C 775.748,385.259 774.748,379.259 772.5,373.5 Z"/></g>
<g><path style="opacity:1" fill="#4c4e4e" d="M 672.5,393.5 C 674.858,394.874 677.192,396.207 679.5,397.5C 678.833,397.5 678.167,397.5 677.5,397.5C 675.251,396.92 673.585,395.587 672.5,393.5 Z"/></g>
<g><path style="opacity:1" fill="#b4b5b5" d="M 689.5,395.5 C 688.653,396.966 687.32,397.8 685.5,398C 682.633,398.801 679.966,398.634 677.5,397.5C 678.167,397.5 678.833,397.5 679.5,397.5C 682.969,397.453 686.302,396.787 689.5,395.5 Z"/></g>
<g><path style="opacity:1" fill="#babbba" d="M 726.5,400.5 C 728.587,401.585 729.92,403.251 730.5,405.5C 728.413,404.415 727.08,402.749 726.5,400.5 Z"/></g>
<g><path style="opacity:1" fill="#959696" d="M 261.5,403.5 C 264.167,404.167 265.833,405.833 266.5,408.5C 264.5,407.167 262.833,405.5 261.5,403.5 Z"/></g>
<g><path style="opacity:1" fill="#a3a5a3" d="M 415.5,397.5 C 416.871,399.936 417.871,402.603 418.5,405.5C 416.345,403.383 415.345,400.716 415.5,397.5 Z"/></g>
<g><path style="opacity:1" fill="#9b9e9d" d="M 578.5,403.5 C 578.027,404.906 577.027,405.573 575.5,405.5C 575.973,404.094 576.973,403.427 578.5,403.5 Z"/></g>
<g><path style="opacity:1" fill="#bbbcba" d="M 630.5,405.5 C 631.097,404.861 631.93,404.528 633,404.5C 635.168,405.502 637.335,406.502 639.5,407.5C 640.298,407.957 640.631,408.624 640.5,409.5C 638.046,408.773 635.713,407.773 633.5,406.5C 632.791,405.596 631.791,405.263 630.5,405.5 Z"/></g>
<g><path style="opacity:1" fill="#b0b2b2" d="M 771.5,401.5 C 770.833,404.167 769.167,405.833 766.5,406.5C 767.833,404.5 769.5,402.833 771.5,401.5 Z"/></g>
<g><path style="opacity:1" fill="#818381" d="M 385.5,403.5 C 386.924,405.515 387.59,407.848 387.5,410.5C 386.076,408.485 385.41,406.152 385.5,403.5 Z"/></g>
<g><path style="opacity:1" fill="#686b68" d="M 630.5,405.5 C 631.791,405.263 632.791,405.596 633.5,406.5C 630.549,406.287 627.882,406.954 625.5,408.5C 626.401,406.273 628.067,405.273 630.5,405.5 Z"/></g>
<g><path style="opacity:1" fill="#939494" d="M 766.5,406.5 C 766.027,407.906 765.027,408.573 763.5,408.5C 763.973,407.094 764.973,406.427 766.5,406.5 Z"/></g>
<g><path style="opacity:1" fill="#888a88" d="M 347.5,401.5 C 348.581,404.627 349.247,407.96 349.5,411.5C 348.778,411.082 348.278,410.416 348,409.5C 347.503,406.854 347.336,404.187 347.5,401.5 Z"/></g>
<g><path style="opacity:1" fill="#545454" d="M 737.5,409.5 C 742.346,411.039 747.346,411.706 752.5,411.5C 749.36,412.641 746.027,412.808 742.5,412C 740.509,411.626 738.842,410.793 737.5,409.5 Z"/></g>
<g><path style="opacity:1" fill="#8f908d" d="M 349.5,413.5 C 351.277,416.505 352.277,419.838 352.5,423.5C 350.723,420.495 349.723,417.162 349.5,413.5 Z"/></g>
<g><path style="opacity:1" fill="#4f5251" d="M 430.5,416.5 C 432.898,416.259 434.898,416.926 436.5,418.5C 435.833,418.5 435.167,418.5 434.5,418.5C 432.847,418.34 431.514,417.674 430.5,416.5 Z"/></g>
<g><path style="opacity:1" fill="#b9bbbb" d="M 434.5,418.5 C 435.167,418.5 435.833,418.5 436.5,418.5C 441.103,419.383 445.77,419.717 450.5,419.5C 446.019,420.648 441.352,420.815 436.5,420C 435.584,419.722 434.918,419.222 434.5,418.5 Z"/></g>
<g><path style="opacity:1" fill="#636562" d="M 622.5,411.5 C 622.421,417.777 621.421,423.777 619.5,429.5C 619.439,423.196 620.439,417.196 622.5,411.5 Z"/></g>
<g><path style="opacity:1" fill="#888a89" d="M 653.5,416.5 C 654.496,416.414 655.329,416.748 656,417.5C 656.796,420.039 656.629,422.372 655.5,424.5C 655.893,421.487 655.226,418.82 653.5,416.5 Z"/></g>
<g><path style="opacity:1" fill="#646464" d="M 396.5,427.5 C 399.167,429.5 401.5,431.833 403.5,434.5C 400.167,433.167 397.833,430.833 396.5,427.5 Z"/></g>
<g><path style="opacity:1" fill="#9c9e9a" d="M 405.5,436.5 C 407.027,436.427 408.027,437.094 408.5,438.5C 406.973,438.573 405.973,437.906 405.5,436.5 Z"/></g>
<g><path style="opacity:1" fill="#9d9d9d" d="M 655.5,428.5 C 655.876,433.894 654.876,438.894 652.5,443.5C 652.862,438.248 653.862,433.248 655.5,428.5 Z"/></g>
<g><path style="opacity:1" fill="#9a9b9a" d="M 359.5,439.5 C 360.906,439.973 361.573,440.973 361.5,442.5C 360.094,442.027 359.427,441.027 359.5,439.5 Z"/></g>
<g><path style="opacity:1" fill="#b8b9b8" d="M 616.5,441.5 C 616.097,444.486 615.097,447.152 613.5,449.5C 613.603,446.364 614.603,443.698 616.5,441.5 Z"/></g>
<g><path style="opacity:1" fill="#9d9d9d" d="M 361.5,442.5 C 362.906,442.973 363.573,443.973 363.5,445.5C 362.094,445.027 361.427,444.027 361.5,442.5 Z"/></g>
<g><path style="opacity:1" fill="#c3c5c4" d="M 125.5,445.5 C 163.515,444.839 201.181,445.506 238.5,447.5C 200.736,446.839 163.069,446.173 125.5,445.5 Z"/></g>
<g><path style="opacity:1" fill="#9b9d9d" d="M 524.5,445.5 C 524.262,447.404 523.262,448.738 521.5,449.5C 521.738,447.596 522.738,446.262 524.5,445.5 Z"/></g>
<g><path style="opacity:1" fill="#acaead" d="M 427.5,447.5 C 436.149,448.203 444.815,448.536 453.5,448.5C 453.5,448.833 453.5,449.167 453.5,449.5C 446.159,449.666 438.826,449.5 431.5,449C 429.942,448.79 428.609,448.29 427.5,447.5 Z"/></g>
<g><path style="opacity:1" fill="#505251" d="M 463.5,446.5 C 463.389,447.117 463.056,447.617 462.5,448C 459.522,448.696 456.522,449.196 453.5,449.5C 453.5,449.167 453.5,448.833 453.5,448.5C 456.833,447.833 460.167,447.167 463.5,446.5 Z"/></g>
<g><path style="opacity:1" fill="#b4b7b6" d="M 238.5,447.5 C 240.118,451.575 241.118,455.908 241.5,460.5C 238.839,456.726 237.839,452.393 238.5,447.5 Z"/></g>
<g><path style="opacity:1" fill="#878a88" d="M 651.5,449.5 C 651.59,452.152 650.924,454.485 649.5,456.5C 649.41,453.848 650.076,451.515 651.5,449.5 Z"/></g>
<g><path style="opacity:1" fill="#b8bbb9" d="M 516.5,455.5 C 514.833,459.167 512.167,461.833 508.5,463.5C 510.833,460.5 513.5,457.833 516.5,455.5 Z"/></g>
<g><path style="opacity:1" fill="#979998" d="M 566.5,459.5 C 568.027,459.427 569.027,460.094 569.5,461.5C 567.973,461.573 566.973,460.906 566.5,459.5 Z"/></g>
<g><path style="opacity:1" fill="#111513" d="M 566.5,459.5 C 566.973,460.906 567.973,461.573 569.5,461.5C 578.224,467.153 581.391,475.153 579,485.5C 577.864,487.743 577.03,490.076 576.5,492.5C 574.167,494.167 572.167,496.167 570.5,498.5C 567.807,499.552 565.14,500.552 562.5,501.5C 557.797,501.563 553.13,501.229 548.5,500.5C 548.027,499.094 547.027,498.427 545.5,498.5C 542.806,496.473 540.473,494.139 538.5,491.5C 538.573,489.973 537.906,488.973 536.5,488.5C 535.886,484.865 535.552,481.198 535.5,477.5C 536.871,475.064 537.871,472.397 538.5,469.5C 540.587,468.415 541.92,466.749 542.5,464.5C 544.844,461.658 547.844,459.825 551.5,459C 556.528,458.412 561.528,458.578 566.5,459.5 Z"/></g>
<g><path style="opacity:1" fill="#9b9c9b" d="M 241.5,460.5 C 243.065,462.509 244.065,464.843 244.5,467.5C 242.166,465.824 241.166,463.491 241.5,460.5 Z"/></g>
<g><path style="opacity:1" fill="#4d4e4d" d="M 542.5,464.5 C 541.92,466.749 540.587,468.415 538.5,469.5C 539.08,467.251 540.413,465.585 542.5,464.5 Z"/></g>
<g><path style="opacity:1" fill="#b5b7b7" d="M 508.5,463.5 C 507.415,465.587 505.749,466.92 503.5,467.5C 504.585,465.413 506.251,464.08 508.5,463.5 Z"/></g>
<g><path style="opacity:1" fill="#818281" d="M 608.5,466.5 C 608.573,468.027 607.906,469.027 606.5,469.5C 606.427,467.973 607.094,466.973 608.5,466.5 Z"/></g>
<g><path style="opacity:1" fill="#939594" d="M 685.5,470.5 C 682.098,470.342 678.764,470.676 675.5,471.5C 675.611,470.883 675.944,470.383 676.5,470C 679.696,469.195 682.696,469.362 685.5,470.5 Z"/></g>
<g><path style="opacity:1" fill="#666868" d="M 210.5,470.5 C 207.14,470.616 203.807,470.949 200.5,471.5C 203.708,469.469 207.041,469.135 210.5,470.5 Z"/></g>
<g><path style="opacity:1" fill="#8e908d" d="M 244.5,468.5 C 245.537,469.93 246.204,471.597 246.5,473.5C 244.787,472.365 244.12,470.698 244.5,468.5 Z"/></g>
<g><path style="opacity:1" fill="#939493" d="M 538.5,469.5 C 537.871,472.397 536.871,475.064 535.5,477.5C 535.345,474.284 536.345,471.617 538.5,469.5 Z"/></g>
<g><path style="opacity:1" fill="#888b8a" d="M 686.5,470.5 C 688.027,470.427 689.027,471.094 689.5,472.5C 687.973,472.573 686.973,471.906 686.5,470.5 Z"/></g>
<g><path style="opacity:1" fill="#131615" d="M 685.5,470.5 C 685.833,470.5 686.167,470.5 686.5,470.5C 686.973,471.906 687.973,472.573 689.5,472.5C 690.167,473.833 691.167,474.833 692.5,475.5C 696.71,484.854 694.044,491.52 684.5,495.5C 681.763,495.599 679.096,495.265 676.5,494.5C 673.083,492.408 670.75,489.408 669.5,485.5C 669.368,482.43 669.701,479.43 670.5,476.5C 671.833,474.5 673.5,472.833 675.5,471.5C 678.764,470.676 682.098,470.342 685.5,470.5 Z"/></g>
<g><path style="opacity:1" fill="#8e9090" d="M 689.5,472.5 C 691.5,472.5 692.5,473.5 692.5,475.5C 691.167,474.833 690.167,473.833 689.5,472.5 Z"/></g>
<g><path style="opacity:1" fill="#141616" d="M 210.5,470.5 C 214.595,472.26 217.262,475.26 218.5,479.5C 218.632,482.57 218.299,485.57 217.5,488.5C 214.978,493.517 210.811,495.85 205,495.5C 199.511,494.845 196.011,491.845 194.5,486.5C 194.342,483.098 194.676,479.764 195.5,476.5C 196.882,474.451 198.548,472.785 200.5,471.5C 203.807,470.949 207.14,470.616 210.5,470.5 Z"/></g>
<g><path style="opacity:1" fill="#b4b5b5" d="M 493.5,473.5 C 492.514,475.408 490.848,476.408 488.5,476.5C 489.659,474.75 491.326,473.75 493.5,473.5 Z"/></g>
<g><path style="opacity:1" fill="#868786" d="M 605.5,473.5 C 605.573,475.027 604.906,476.027 603.5,476.5C 603.427,474.973 604.094,473.973 605.5,473.5 Z"/></g>
<g><path style="opacity:1" fill="#949695" d="M 195.5,476.5 C 194.676,479.764 194.342,483.098 194.5,486.5C 193.362,483.696 193.195,480.696 194,477.5C 194.383,476.944 194.883,476.611 195.5,476.5 Z"/></g>
<g><path style="opacity:1" fill="#b1b2b2" d="M 485.5,477.5 C 483.967,479.245 481.967,480.245 479.5,480.5C 481.033,478.755 483.033,477.755 485.5,477.5 Z"/></g>
<g><path style="opacity:1" fill="#abaeac" d="M 247.5,477.5 C 249.065,479.509 250.065,481.843 250.5,484.5C 248.166,482.824 247.166,480.491 247.5,477.5 Z"/></g>
<g><path style="opacity:1" fill="#838683" d="M 602.5,479.5 C 602.573,481.027 601.906,482.027 600.5,482.5C 600.427,480.973 601.094,479.973 602.5,479.5 Z"/></g>
<g><path style="opacity:1" fill="#6c6e6d" d="M 218.5,479.5 C 219.634,481.966 219.801,484.633 219,487.5C 218.617,488.056 218.117,488.389 217.5,488.5C 218.299,485.57 218.632,482.57 218.5,479.5 Z"/></g>
<g><path style="opacity:1" fill="#969898" d="M 474.5,481.5 C 472.485,482.924 470.152,483.59 467.5,483.5C 469.515,482.076 471.848,481.41 474.5,481.5 Z"/></g>
<g><path style="opacity:1" fill="#797a79" d="M 642.5,480.5 C 642.573,482.027 641.906,483.027 640.5,483.5C 640.427,481.973 641.094,480.973 642.5,480.5 Z"/></g>
<g><path style="opacity:1" fill="#8e908f" d="M 670.5,476.5 C 669.701,479.43 669.368,482.43 669.5,485.5C 668.366,483.034 668.199,480.367 669,477.5C 669.383,476.944 669.883,476.611 670.5,476.5 Z"/></g>
<g><path style="opacity:1" fill="#929292" d="M 421.5,483.5 C 425.36,483.808 429.026,484.475 432.5,485.5C 429.482,485.665 426.482,485.498 423.5,485C 422.584,484.722 421.918,484.222 421.5,483.5 Z"/></g>
<g><path style="opacity:1" fill="#6d6e6d" d="M 463.5,483.5 C 461.162,485.04 458.495,485.706 455.5,485.5C 457.905,484.232 460.572,483.565 463.5,483.5 Z"/></g>
<g><path style="opacity:1" fill="#8c8e8e" d="M 250.5,484.5 C 252.534,486.655 252.867,488.988 251.5,491.5C 251.007,489.194 250.674,486.861 250.5,484.5 Z"/></g>
<g><path style="opacity:1" fill="#b6b8b5" d="M 639.5,486.5 C 639.5,488.167 639.5,489.833 639.5,491.5C 637.149,490.084 637.149,488.417 639.5,486.5 Z"/></g>
<g><path style="opacity:1" fill="#9e9e9e" d="M 536.5,488.5 C 537.906,488.973 538.573,489.973 538.5,491.5C 537.094,491.027 536.427,490.027 536.5,488.5 Z"/></g>
<g><path style="opacity:1" fill="#b2b2b2" d="M 676.5,494.5 C 679.096,495.265 681.763,495.599 684.5,495.5C 683.551,496.152 682.385,496.486 681,496.5C 678.992,496.693 677.492,496.026 676.5,494.5 Z"/></g>
<g><path style="opacity:1" fill="#b1b1b1" d="M 576.5,492.5 C 575.5,495.5 573.5,497.5 570.5,498.5C 572.167,496.167 574.167,494.167 576.5,492.5 Z"/></g>
<g><path style="opacity:1" fill="#6f6f6f" d="M 545.5,498.5 C 547.027,498.427 548.027,499.094 548.5,500.5C 546.973,500.573 545.973,499.906 545.5,498.5 Z"/></g>
<g><path style="opacity:1" fill="#535655" d="M 548.5,500.5 C 553.13,501.229 557.797,501.563 562.5,501.5C 560.696,502.162 558.696,502.495 556.5,502.5C 553.473,502.713 550.807,502.047 548.5,500.5 Z"/></g>
<g><path style="opacity:1" fill="#727372" d="M 591.5,500.5 C 590.962,502.117 590.629,503.784 590.5,505.5C 589.07,503.545 589.403,501.879 591.5,500.5 Z"/></g>
<g><path style="opacity:1" fill="#aeb0af" d="M 301.5,502.5 C 302.598,503.601 302.765,504.934 302,506.5C 293.579,515.426 284.746,523.759 275.5,531.5C 283.798,522.702 292.298,514.035 301,505.5C 301.483,504.552 301.649,503.552 301.5,502.5 Z"/></g>
<g><path style="opacity:1" fill="#b3b6b3" d="M 331.5,528.5 C 333.749,529.08 335.415,530.413 336.5,532.5C 334.251,531.92 332.585,530.587 331.5,528.5 Z"/></g>
<g><path style="opacity:1" fill="#575958" d="M 562.5,529.5 C 560.833,529.5 559.167,529.5 557.5,529.5C 559.167,526.833 560.833,526.833 562.5,529.5 Z"/></g>
<g><path style="opacity:1" fill="#969897" d="M 338.5,534.5 C 340.027,534.427 341.027,535.094 341.5,536.5C 339.973,536.573 338.973,535.906 338.5,534.5 Z"/></g>
<g><path style="opacity:1" fill="#b3b5b3" d="M 275.5,531.5 C 273.167,535.833 269.833,539.167 265.5,541.5C 268.5,537.833 271.833,534.5 275.5,531.5 Z"/></g>
<g><path style="opacity:1" fill="#4f534f" d="M 321.5,534.5 C 320.5,537.5 318.5,539.5 315.5,540.5C 317.167,538.167 319.167,536.167 321.5,534.5 Z"/></g>
<g><path style="opacity:1" fill="#989896" d="M 347.5,540.5 C 349.027,540.427 350.027,541.094 350.5,542.5C 348.973,542.573 347.973,541.906 347.5,540.5 Z"/></g>
<g><path style="opacity:1" fill="#b9bab9" d="M 265.5,541.5 C 264.5,544.5 262.5,546.5 259.5,547.5C 261.167,545.167 263.167,543.167 265.5,541.5 Z"/></g>
<g><path style="opacity:1" fill="#8d908f" d="M 361.5,548.5 C 363.967,548.755 365.967,549.755 367.5,551.5C 365.033,551.245 363.033,550.245 361.5,548.5 Z"/></g>
<g><path style="opacity:1" fill="#b3b5b3" d="M 367.5,551.5 C 370.491,551.166 372.824,552.166 374.5,554.5C 371.843,554.065 369.509,553.065 367.5,551.5 Z"/></g>
<g><path style="opacity:1" fill="#939594" d="M 514.5,554.5 C 513.486,555.674 512.153,556.34 510.5,556.5C 511.287,554.896 512.62,554.229 514.5,554.5 Z"/></g>
<g><path style="opacity:1" fill="#9fa19f" d="M 395.5,561.5 C 399.985,562.34 404.319,563.34 408.5,564.5C 403.688,565.035 399.355,564.035 395.5,561.5 Z"/></g>
<g><path style="opacity:1" fill="#8a8c8b" d="M 408.5,564.5 C 411.428,564.565 414.095,565.232 416.5,566.5C 413.505,566.706 410.838,566.04 408.5,564.5 Z"/></g>
<g><path style="opacity:1" fill="#868885" d="M 480.5,564.5 C 476.413,566.064 472.079,567.064 467.5,567.5C 467.611,566.883 467.944,566.383 468.5,566C 472.491,565.358 476.491,564.858 480.5,564.5 Z"/></g>
<g><path style="opacity:1" fill="#989999" d="M 174.5,575.5 C 175.906,575.973 176.573,576.973 176.5,578.5C 175.094,578.027 174.427,577.027 174.5,575.5 Z"/></g>
<g><path style="opacity:1" fill="#9fa2a1" d="M 714.5,569.5 C 715.634,571.966 715.801,574.633 715,577.5C 714.617,578.056 714.117,578.389 713.5,578.5C 714.299,575.57 714.632,572.57 714.5,569.5 Z"/></g>
<g><path style="opacity:1" fill="#b0b2b1" d="M 551.5,581.5 C 550.305,581.322 549.138,580.989 548,580.5C 545.681,581.871 543.181,582.538 540.5,582.5C 542.716,580.806 545.216,579.473 548,578.5C 549.642,578.978 550.809,579.978 551.5,581.5 Z"/></g>
<g><path style="opacity:1" fill="#878888" d="M 540.5,582.5 C 538.967,584.245 536.967,585.245 534.5,585.5C 536.033,583.755 538.033,582.755 540.5,582.5 Z"/></g>
<g><path style="opacity:1" fill="#c2c5c4" d="M 527.5,588.5 C 524.032,591.228 520.032,592.895 515.5,593.5C 519.099,591.072 523.099,589.406 527.5,588.5 Z"/></g>
<g><path style="opacity:1" fill="#595b5a" d="M 374.5,593.5 C 376.898,593.259 378.898,593.926 380.5,595.5C 378.102,595.741 376.102,595.074 374.5,593.5 Z"/></g>
<g><path style="opacity:1" fill="#101210" d="M 503.5,707.5 C 503.141,709.371 502.141,710.871 500.5,712C 462.664,712.831 424.998,712.664 387.5,711.5C 386.833,710.5 386.167,709.5 385.5,708.5C 385.821,706.952 386.821,706.285 388.5,706.5C 388.453,700.147 389.119,699.98 390.5,706C 391.742,706.311 392.742,705.811 393.5,704.5C 394.498,694.856 394.832,685.19 394.5,675.5C 395.5,675.5 396.5,675.5 397.5,675.5C 397.5,676.833 397.5,678.167 397.5,679.5C 398.873,679.343 400.207,679.51 401.5,680C 401.839,683.339 403.672,684.839 407,684.5C 425.471,684.471 443.971,684.305 462.5,684C 463.475,678.259 463.808,672.425 463.5,666.5C 469.167,666.5 474.833,666.5 480.5,666.5C 480.5,664.833 480.5,663.167 480.5,661.5C 479.167,661.5 477.833,661.5 476.5,661.5C 476.5,659.167 476.5,656.833 476.5,654.5C 480.068,654.241 481.401,652.241 480.5,648.5C 479.167,648.5 477.833,648.5 476.5,648.5C 476.5,643.167 476.5,637.833 476.5,632.5C 477.833,632.5 479.167,632.5 480.5,632.5C 480.5,623.833 480.5,615.167 480.5,606.5C 483.167,606.5 485.833,606.5 488.5,606.5C 488.5,615.167 488.5,623.833 488.5,632.5C 491.5,632.5 494.5,632.5 497.5,632.5C 497.5,646.833 497.5,661.167 497.5,675.5C 498.5,675.5 499.5,675.5 500.5,675.5C 500.333,661.496 500.5,647.496 501,633.5C 501.333,658.167 501.667,682.833 502,707.5C 502.833,560.835 503.333,560.835 503.5,707.5 Z"/></g>
<g><path style="opacity:1" fill="#9b9c9a" d="M 579.5,609.5 C 580.833,610.167 581.833,611.167 582.5,612.5C 580.5,612.5 579.5,611.5 579.5,609.5 Z"/></g>
<g><path style="opacity:1" fill="#9ea0a0" d="M 352.5,612.5 C 356.237,612.241 358.57,613.907 359.5,617.5C 357.4,615.384 355.067,613.717 352.5,612.5 Z"/></g>
<g><path style="opacity:1" fill="#171817" d="M 544.5,612.5 C 553.374,617.748 554.874,624.748 549,633.5C 540.99,639.618 534.157,638.618 528.5,630.5C 527.191,626.351 527.191,622.351 528.5,618.5C 530.63,616.873 532.63,615.04 534.5,613C 537.817,612.502 541.15,612.335 544.5,612.5 Z"/></g>
<g><path style="opacity:1" fill="#a3a4a3" d="M 513.5,593.5 C 511.349,595.289 508.849,596.622 506,597.5C 505.833,634.002 505.333,670.336 504.5,706.5C 504.333,669.832 504.5,633.165 505,596.5C 507.727,595.202 510.56,594.202 513.5,593.5 Z"/></g>
<g><path style="opacity:1" fill="#5b5b5b" d="M 544.5,612.5 C 541.15,612.335 537.817,612.502 534.5,613C 532.63,615.04 530.63,616.873 528.5,618.5C 529.543,615.944 531.21,613.777 533.5,612C 537.358,611.19 541.024,611.357 544.5,612.5 Z"/></g>
<g><path style="opacity:1" fill="#151717" d="M 352.5,612.5 C 355.067,613.717 357.4,615.384 359.5,617.5C 360.344,621.099 360.677,624.766 360.5,628.5C 356.97,636.762 350.97,639.262 342.5,636C 334.568,628.365 334.568,620.699 342.5,613C 345.926,611.424 349.26,611.258 352.5,612.5 Z"/></g>
<g><path style="opacity:1" fill="#636565" d="M 359.5,617.5 C 360.117,617.611 360.617,617.944 361,618.5C 361.808,622.027 361.641,625.36 360.5,628.5C 360.677,624.766 360.344,621.099 359.5,617.5 Z"/></g>
<g><path style="opacity:1" fill="#d4d6d4" d="M 380.5,596.5 C 381.5,596.5 382.5,596.5 383.5,596.5C 383.5,633.167 383.5,669.833 383.5,706.5C 383.154,669.783 382.154,633.116 380.5,596.5 Z"/></g>
<g><path style="opacity:1" fill="#a8a9a9" d="M 645.5,646.5 C 644.167,648.5 642.5,650.167 640.5,651.5C 641.167,648.833 642.833,647.167 645.5,646.5 Z"/></g>
<g><path style="opacity:1" fill="#b7b9b8" d="M 264.5,655.5 C 263.129,656.787 261.295,657.453 259,657.5C 256.967,657.494 255.134,657.161 253.5,656.5C 257.234,656.677 260.901,656.344 264.5,655.5 Z"/></g>
<g><path style="opacity:1" fill="#aeb0ae" d="M 635.5,655.5 C 634.486,656.765 632.986,657.431 631,657.5C 629.293,657.492 627.793,657.158 626.5,656.5C 629.57,656.632 632.57,656.299 635.5,655.5 Z"/></g>
<g><path style="opacity:1" fill="#959695" d="M 384.5,708.5 C 384.833,708.5 385.167,708.5 385.5,708.5C 386.167,709.5 386.833,710.5 387.5,711.5C 385.5,711.5 384.5,710.5 384.5,708.5 Z"/></g>
</svg>
