<?xml version="1.0" encoding="UTF-8"?>
<!DOCTYPE svg PUBLIC "-//W3C//DTD SVG 1.1//EN" "http://www.w3.org/Graphics/SVG/1.1/DTD/svg11.dtd">
<svg xmlns="http://www.w3.org/2000/svg" version="1.1" width="722px" height="690px" style="shape-rendering:geometricPrecision; text-rendering:geometricPrecision; image-rendering:optimizeQuality; fill-rule:evenodd; clip-rule:evenodd" xmlns:xlink="http://www.w3.org/1999/xlink">
<g><path style="opacity:1" fill="#fdfdfd" d="M -0.5,-0.5 C 240.167,-0.5 480.833,-0.5 721.5,-0.5C 721.5,229.5 721.5,459.5 721.5,689.5C 480.833,689.5 240.167,689.5 -0.5,689.5C -0.5,459.5 -0.5,229.5 -0.5,-0.5 Z"/></g>
<g><path style="opacity:1" fill="#4c4e4d" d="M 406.5,30.5 C 368.833,29.1667 331.167,29.1667 293.5,30.5C 293.611,29.8826 293.944,29.3826 294.5,29C 331.5,28.3333 368.5,28.3333 405.5,29C 406.056,29.3826 406.389,29.8826 406.5,30.5 Z"/></g>
<g><path style="opacity:1" fill="#bdbfbd" d="M 615.5,31.5 C 615.5,31.1667 615.5,30.8333 615.5,30.5C 620.312,29.9645 624.645,30.9645 628.5,33.5C 624.24,32.4147 619.906,31.748 615.5,31.5 Z"/></g>
<g><path style="opacity:1" fill="#888a89" d="M 615.5,30.5 C 615.5,30.8333 615.5,31.1667 615.5,31.5C 605.734,31.0915 596.067,31.7582 586.5,33.5C 588.562,32.2237 590.896,31.3903 593.5,31C 600.826,30.5003 608.159,30.3337 615.5,30.5 Z"/></g>
<g><path style="opacity:1" fill="#aeaeae" d="M 630.5,33.5 C 633.491,33.1663 635.824,34.1663 637.5,36.5C 634.843,36.0652 632.509,35.0652 630.5,33.5 Z"/></g>
<g><path style="opacity:1" fill="#5a5b5a" d="M 545.5,58.5 C 544.92,60.7488 543.587,62.4154 541.5,63.5C 542.08,61.2512 543.413,59.5846 545.5,58.5 Z"/></g>
<g><path style="opacity:1" fill="#b6b8b7" d="M 408.5,33.5 C 409.117,33.6107 409.617,33.944 410,34.5C 410.5,71.1652 410.667,107.832 410.5,144.5C 412.38,144.229 413.713,144.896 414.5,146.5C 412.883,145.962 411.216,145.629 409.5,145.5C 409.821,108.124 409.487,70.7903 408.5,33.5 Z"/></g>
<g><path style="opacity:1" fill="#777777" d="M 170.5,80.5 C 166.5,79.1667 162.5,79.1667 158.5,80.5C 158.611,79.8826 158.944,79.3826 159.5,79C 162.833,78.3333 166.167,78.3333 169.5,79C 170.056,79.3826 170.389,79.8826 170.5,80.5 Z"/></g>
<g><path style="opacity:1" fill="#7a7d7c" d="M 680.5,76.5 C 681.906,76.9731 682.573,77.9731 682.5,79.5C 681.094,79.0269 680.427,78.0269 680.5,76.5 Z"/></g>
<g><path style="opacity:1" fill="#a5a6a5" d="M 530.5,82.5 C 530.065,85.1573 529.065,87.4907 527.5,89.5C 527.552,86.6538 528.552,84.3204 530.5,82.5 Z"/></g>
<g><path style="opacity:1" fill="#555757" d="M 683.5,83.5 C 685.074,85.1016 685.741,87.1016 685.5,89.5C 683.926,87.8984 683.259,85.8984 683.5,83.5 Z"/></g>
<g><path style="opacity:1" fill="#9fa1a0" d="M 291.5,32.5 C 290.845,70.2941 290.179,107.961 289.5,145.5C 289.333,108.165 289.5,70.8318 290,33.5C 290.383,32.944 290.883,32.6107 291.5,32.5 Z"/></g>
<g><path style="opacity:1" fill="#4d4e4c" d="M 148.5,90.5 C 147.92,92.7488 146.587,94.4154 144.5,95.5C 145.08,93.2512 146.413,91.5846 148.5,90.5 Z"/></g>
<g><path style="opacity:1" fill="#717470" d="M 686.5,93.5 C 687.924,95.5145 688.59,97.8478 688.5,100.5C 687.076,98.4855 686.41,96.1522 686.5,93.5 Z"/></g>
<g><path style="opacity:1" fill="#181817" d="M 456.5,113.5 C 457.192,119.096 455.525,123.762 451.5,127.5C 451.167,127.5 450.833,127.5 450.5,127.5C 446.566,128.36 442.566,128.693 438.5,128.5C 436.473,127.139 434.806,125.473 433.5,123.5C 432.167,118.833 432.167,114.167 433.5,109.5C 438.881,102.47 445.214,101.637 452.5,107C 454.232,108.972 455.565,111.139 456.5,113.5 Z"/></g>
<g><path style="opacity:1" fill="#717171" d="M 433.5,109.5 C 432.167,114.167 432.167,118.833 433.5,123.5C 432.883,123.389 432.383,123.056 432,122.5C 431.333,118.5 431.333,114.5 432,110.5C 432.383,109.944 432.883,109.611 433.5,109.5 Z"/></g>
<g><path style="opacity:1" fill="#c5c5c5" d="M 456.5,113.5 C 458.326,115.455 458.826,117.788 458,120.5C 457.015,123.983 454.849,126.316 451.5,127.5C 455.525,123.762 457.192,119.096 456.5,113.5 Z"/></g>
<g><path style="opacity:1" fill="#848484" d="M 450.5,127.5 C 450.389,128.117 450.056,128.617 449.5,129C 445.642,129.81 441.976,129.643 438.5,128.5C 442.566,128.693 446.566,128.36 450.5,127.5 Z"/></g>
<g><path style="opacity:1" fill="#a1a2a2" d="M 669.5,165.5 C 667.167,169.833 663.833,173.167 659.5,175.5C 662.5,171.833 665.833,168.5 669.5,165.5 Z"/></g>
<g><path style="opacity:1" fill="#acaeae" d="M 640.5,186.5 C 634.067,190.057 627.067,191.724 619.5,191.5C 626.495,190.231 633.495,188.564 640.5,186.5 Z"/></g>
<g><path style="opacity:1" fill="#b0b0ae" d="M 458.5,199.5 C 457.089,201.914 455.089,203.581 452.5,204.5C 453.911,202.086 455.911,200.419 458.5,199.5 Z"/></g>
<g><path style="opacity:1" fill="#babdbc" d="M 619.5,191.5 C 619.62,195.042 619.286,198.542 618.5,202C 618.316,203.376 617.649,204.209 616.5,204.5C 617.057,199.948 618.057,195.615 619.5,191.5 Z"/></g>
<g><path style="opacity:1" fill="#404141" d="M 496.5,205.5 C 494.5,209.5 491.5,212.5 487.5,214.5C 490.167,211.167 493.167,208.167 496.5,205.5 Z"/></g>
<g><path style="opacity:1" fill="#171815" d="M 126.5,234.5 C 127.324,237.764 127.658,241.098 127.5,244.5C 126.079,248.039 123.745,250.706 120.5,252.5C 116.766,252.677 113.099,252.344 109.5,251.5C 100.528,244.512 100.195,237.012 108.5,229C 116.066,225.912 122.066,227.745 126.5,234.5 Z"/></g>
<g><path style="opacity:1" fill="#b7b9b7" d="M 607.5,229.5 C 607.376,233.748 605.71,237.082 602.5,239.5C 603.659,235.849 605.326,232.515 607.5,229.5 Z"/></g>
<g><path style="opacity:1" fill="#8c8c8a" d="M 126.5,234.5 C 127.117,234.611 127.617,234.944 128,235.5C 128.805,238.696 128.638,241.696 127.5,244.5C 127.658,241.098 127.324,237.764 126.5,234.5 Z"/></g>
<g><path style="opacity:1" fill="#7a7a7a" d="M 162.5,245.5 C 162.573,247.027 161.906,248.027 160.5,248.5C 160.427,246.973 161.094,245.973 162.5,245.5 Z"/></g>
<g><path style="opacity:1" fill="#8e8e8c" d="M 109.5,251.5 C 113.099,252.344 116.766,252.677 120.5,252.5C 117.36,253.641 114.027,253.808 110.5,253C 109.944,252.617 109.611,252.117 109.5,251.5 Z"/></g>
<g><path style="opacity:1" fill="#121514" d="M 615.5,31.5 C 619.906,31.748 624.24,32.4147 628.5,33.5C 629.167,33.5 629.833,33.5 630.5,33.5C 632.509,35.0652 634.843,36.0652 637.5,36.5C 656.986,44.3197 671.319,57.653 680.5,76.5C 680.427,78.0269 681.094,79.0269 682.5,79.5C 683.434,80.5676 683.768,81.901 683.5,83.5C 683.259,85.8984 683.926,87.8984 685.5,89.5C 686.434,90.5676 686.768,91.901 686.5,93.5C 686.41,96.1522 687.076,98.4855 688.5,100.5C 690.676,124.819 684.343,146.486 669.5,165.5C 665.833,168.5 662.5,171.833 659.5,175.5C 653.322,179.423 646.989,183.089 640.5,186.5C 633.495,188.564 626.495,190.231 619.5,191.5C 618.057,195.615 617.057,199.948 616.5,204.5C 614.096,213.046 611.096,221.379 607.5,229.5C 605.326,232.515 603.659,235.849 602.5,239.5C 599.687,243.098 596.853,246.765 594,250.5C 568.298,276.035 542.798,301.701 517.5,327.5C 513.5,330.833 509.833,334.5 506.5,338.5C 499.035,345.464 491.702,352.631 484.5,360C 478.031,364.568 471.031,368.068 463.5,370.5C 456.118,371.236 449.118,372.569 442.5,374.5C 440.796,377.939 439.462,381.605 438.5,385.5C 436.562,389.043 434.895,392.71 433.5,396.5C 432.094,396.973 431.427,397.973 431.5,399.5C 427.863,403.983 424.363,408.65 421,413.5C 415.935,418.074 410.769,422.407 405.5,426.5C 403.973,426.427 402.973,427.094 402.5,428.5C 397.86,430.82 393.193,433.153 388.5,435.5C 385.603,436.129 382.936,437.129 380.5,438.5C 377.848,438.41 375.515,439.076 373.5,440.5C 372.833,440.5 372.167,440.5 371.5,440.5C 368.848,440.41 366.515,441.076 364.5,442.5C 339.666,446.065 316.666,441.231 295.5,428C 289.038,423.372 283.038,418.205 277.5,412.5C 276.92,410.251 275.587,408.585 273.5,407.5C 272.92,405.251 271.587,403.585 269.5,402.5C 269.672,401.508 269.338,400.842 268.5,400.5C 268.573,398.973 267.906,397.973 266.5,397.5C 262.888,389.983 259.888,382.317 257.5,374.5C 257.59,371.848 256.924,369.515 255.5,367.5C 253.398,356.508 253.065,345.508 254.5,334.5C 255.784,330.015 256.784,325.349 257.5,320.5C 258.738,318.786 259.405,316.786 259.5,314.5C 260.906,314.027 261.573,313.027 261.5,311.5C 274.175,281.985 296.175,263.485 327.5,256C 339.453,254.635 351.453,254.135 363.5,254.5C 366.974,255.525 370.64,256.192 374.5,256.5C 381.989,259.108 389.323,262.108 396.5,265.5C 396.973,266.906 397.973,267.573 399.5,267.5C 407.161,274.301 415.827,275.468 425.5,271C 429.5,268.667 433.5,266.333 437.5,264C 454.035,247.298 470.701,230.798 487.5,214.5C 491.5,212.5 494.5,209.5 496.5,205.5C 506.604,194.895 516.937,184.395 527.5,174C 529.579,173.192 531.579,173.359 533.5,174.5C 538.792,179.291 543.959,184.291 549,189.5C 549.791,193.926 549.457,198.259 548,202.5C 522.191,228.477 496.357,254.143 470.5,279.5C 467.757,281.239 465.757,283.573 464.5,286.5C 456.583,295.581 446.916,302.081 435.5,306C 420.167,306.667 404.833,306.667 389.5,306C 371.772,290.452 351.438,286.118 328.5,293C 319.872,296.468 312.539,301.634 306.5,308.5C 304.413,309.585 303.08,311.251 302.5,313.5C 289.502,331.292 287.002,350.626 295,371.5C 296.623,375.71 298.623,379.71 301,383.5C 305.5,388 310,392.5 314.5,397C 319.463,400.315 324.796,402.815 330.5,404.5C 332.515,405.924 334.848,406.59 337.5,406.5C 370.673,410.168 393.507,396.502 406,365.5C 406.696,362.522 407.196,359.522 407.5,356.5C 408.488,351.36 408.821,346.026 408.5,340.5C 420.012,340.828 431.346,340.495 442.5,339.5C 454.074,336.879 464.074,331.379 472.5,323C 505.538,288.795 539.205,254.961 573.5,221.5C 575.587,220.415 576.92,218.749 577.5,216.5C 577.604,214.297 578.27,212.297 579.5,210.5C 581.472,207.916 582.472,204.916 582.5,201.5C 582.595,199.214 583.262,197.214 584.5,195.5C 586.411,191.767 587.744,187.767 588.5,183.5C 590.517,176.276 592.85,169.109 595.5,162C 615.775,164.135 632.608,157.635 646,142.5C 654.964,130.181 658.131,116.515 655.5,101.5C 655.333,97.3266 654,93.6599 651.5,90.5C 644.764,76.6227 633.764,68.2893 618.5,65.5C 614.797,63.945 610.797,63.2783 606.5,63.5C 603.314,63.502 600.314,63.8353 597.5,64.5C 589.265,65.4527 582.265,68.786 576.5,74.5C 572.833,76.1667 570.167,78.8333 568.5,82.5C 563.376,87.4139 560.376,93.4139 559.5,100.5C 558.732,101.263 558.232,102.263 558,103.5C 557.501,107.821 557.334,112.154 557.5,116.5C 551.849,118.659 546.516,121.326 541.5,124.5C 538.296,125.383 535.629,127.05 533.5,129.5C 528.335,131.338 524.001,134.338 520.5,138.5C 518.251,139.08 516.585,140.413 515.5,142.5C 510.167,147.5 504.833,152.5 499.5,157.5C 497.752,156.211 497.419,154.711 498.5,153C 494.985,151.544 491.485,151.378 488,152.5C 487.782,155.426 487.282,158.26 486.5,161C 479.44,162.271 476.94,159.438 479,152.5C 480.356,151.62 481.856,151.286 483.5,151.5C 483.5,148.833 483.5,146.167 483.5,143.5C 480.5,143.5 477.5,143.5 474.5,143.5C 475.129,138.945 473.462,137.278 469.5,138.5C 482.231,123.477 497.231,111.31 514.5,102C 518.009,100.241 521.675,99.074 525.5,98.5C 525.873,95.4261 526.539,92.4261 527.5,89.5C 529.065,87.4907 530.065,85.1573 530.5,82.5C 532.908,75.34 536.574,69.0067 541.5,63.5C 543.587,62.4154 544.92,60.7488 545.5,58.5C 556.142,45.3396 569.809,37.0063 586.5,33.5C 596.067,31.7582 605.734,31.0915 615.5,31.5 Z"/></g>
<g><path style="opacity:1" fill="#b2b4b3" d="M 363.5,254.5 C 367.489,254.116 371.155,254.783 374.5,256.5C 370.64,256.192 366.974,255.525 363.5,254.5 Z"/></g>
<g><path style="opacity:1" fill="#515453" d="M 577.5,216.5 C 576.92,218.749 575.587,220.415 573.5,221.5C 574.08,219.251 575.413,217.585 577.5,216.5 Z"/></g>
<g><path style="opacity:1" fill="#656767" d="M 582.5,201.5 C 582.472,204.916 581.472,207.916 579.5,210.5C 579.928,207.215 580.928,204.215 582.5,201.5 Z"/></g>
<g><path style="opacity:1" fill="#686c6b" d="M 588.5,183.5 C 587.744,187.767 586.411,191.767 584.5,195.5C 584.861,191.085 586.194,187.085 588.5,183.5 Z"/></g>
<g><path style="opacity:1" fill="#b2b3b2" d="M 520.5,138.5 C 519.415,140.587 517.749,141.92 515.5,142.5C 516.585,140.413 518.251,139.08 520.5,138.5 Z"/></g>
<g><path style="opacity:1" fill="#c2c2c2" d="M 541.5,124.5 C 540.323,126.032 538.989,127.532 537.5,129C 536.207,129.49 534.873,129.657 533.5,129.5C 535.629,127.05 538.296,125.383 541.5,124.5 Z"/></g>
<g><path style="opacity:1" fill="#595958" d="M 586.5,102.5 C 585.226,108.508 585.226,114.508 586.5,120.5C 585.778,120.082 585.278,119.416 585,118.5C 584.833,116.333 584.667,114.167 584.5,112C 584.328,108.523 584.994,105.356 586.5,102.5 Z"/></g>
<g><path style="opacity:1" fill="#828383" d="M 559.5,100.5 C 559.048,105.998 558.381,111.331 557.5,116.5C 557.334,112.154 557.501,107.821 558,103.5C 558.232,102.263 558.732,101.263 559.5,100.5 Z"/></g>
<g><path style="opacity:1" fill="#70716e" d="M 588.5,99.5 C 588.573,101.027 587.906,102.027 586.5,102.5C 586.427,100.973 587.094,99.9731 588.5,99.5 Z"/></g>
<g><path style="opacity:1" fill="#989898" d="M 651.5,90.5 C 654,93.6599 655.333,97.3266 655.5,101.5C 653.358,98.1996 652.025,94.533 651.5,90.5 Z"/></g>
<g><path style="opacity:1" fill="#838483" d="M 615.5,90.5 C 617.027,90.427 618.027,91.0937 618.5,92.5C 616.973,92.573 615.973,91.9063 615.5,90.5 Z"/></g>
<g><path style="opacity:1" fill="#131513" d="M 611.5,90.5 C 612.833,90.5 614.167,90.5 615.5,90.5C 615.973,91.9063 616.973,92.573 618.5,92.5C 626.388,96.9231 630.388,103.756 630.5,113C 627.684,129.251 618.017,136.585 601.5,135C 593.981,132.646 588.981,127.813 586.5,120.5C 585.226,114.508 585.226,108.508 586.5,102.5C 587.906,102.027 588.573,101.027 588.5,99.5C 589.833,96.1667 592.167,93.8333 595.5,92.5C 600.716,91.0313 606.05,90.3646 611.5,90.5 Z"/></g>
<g><path style="opacity:1" fill="#4b4c4b" d="M 611.5,90.5 C 606.05,90.3646 600.716,91.0313 595.5,92.5C 596.681,90.9328 598.347,90.0995 600.5,90C 604.358,89.1901 608.024,89.3567 611.5,90.5 Z"/></g>
<g><path style="opacity:1" fill="#b5b7b6" d="M 576.5,74.5 C 574.167,77.5 571.5,80.1667 568.5,82.5C 570.167,78.8333 572.833,76.1667 576.5,74.5 Z"/></g>
<g><path style="opacity:1" fill="#929594" d="M 597.5,64.5 C 600.314,63.8353 603.314,63.502 606.5,63.5C 610.797,63.2783 614.797,63.945 618.5,65.5C 611.529,64.7103 604.529,64.3769 597.5,64.5 Z"/></g>
<g><path style="opacity:1" fill="#282a29" d="M 666.5,322.5 C 665.667,283.335 665.167,244.002 665,204.5C 664.329,205.252 663.496,205.586 662.5,205.5C 663.287,203.896 664.62,203.229 666.5,203.5C 666.5,243.167 666.5,282.833 666.5,322.5 Z"/></g>
<g><path style="opacity:1" fill="#959796" d="M 196.5,261.5 C 196.573,263.027 195.906,264.027 194.5,264.5C 194.427,262.973 195.094,261.973 196.5,261.5 Z"/></g>
<g><path style="opacity:1" fill="#929492" d="M 396.5,265.5 C 398.027,265.427 399.027,266.094 399.5,267.5C 397.973,267.573 396.973,266.906 396.5,265.5 Z"/></g>
<g><path style="opacity:1" fill="#e3e6e4" d="M 147.5,278.5 C 147.5,279.5 147.5,280.5 147.5,281.5C 110.833,281.5 74.1667,281.5 37.5,281.5C 74.2172,281.154 110.884,280.154 147.5,278.5 Z"/></g>
<g><path style="opacity:1" fill="#a1a3a3" d="M 470.5,279.5 C 469.243,282.427 467.243,284.761 464.5,286.5C 465.757,283.573 467.757,281.239 470.5,279.5 Z"/></g>
<g><path style="opacity:1" fill="#121412" d="M 406.5,30.5 C 407.167,31.5 407.833,32.5 408.5,33.5C 409.487,70.7903 409.821,108.124 409.5,145.5C 411.216,145.629 412.883,145.962 414.5,146.5C 425.775,150.223 436.609,154.89 447,160.5C 454.347,152.986 461.847,145.653 469.5,138.5C 473.462,137.278 475.129,138.945 474.5,143.5C 477.5,143.5 480.5,143.5 483.5,143.5C 483.5,146.167 483.5,148.833 483.5,151.5C 481.856,151.286 480.356,151.62 479,152.5C 476.94,159.438 479.44,162.271 486.5,161C 487.282,158.26 487.782,155.426 488,152.5C 491.485,151.378 494.985,151.544 498.5,153C 497.419,154.711 497.752,156.211 499.5,157.5C 485.833,171.5 472.167,185.5 458.5,199.5C 455.911,200.419 453.911,202.086 452.5,204.5C 447.297,203.16 442.63,200.66 438.5,197C 432.78,194.14 427.114,191.307 421.5,188.5C 421.027,187.094 420.027,186.427 418.5,186.5C 417.833,186.5 417.167,186.5 416.5,186.5C 414.967,184.755 412.967,183.755 410.5,183.5C 406.473,181.935 402.473,180.602 398.5,179.5C 396.485,178.076 394.152,177.41 391.5,177.5C 389.585,177.784 387.919,177.451 386.5,176.5C 381.741,174.675 376.741,173.341 371.5,172.5C 369.359,170.878 367.692,168.878 366.5,166.5C 366.667,140.831 366.5,115.165 366,89.5C 365.722,88.5842 365.222,87.9175 364.5,87.5C 358.973,80.1565 351.64,77.6565 342.5,80C 339.261,81.7364 336.927,84.2364 335.5,87.5C 334.442,88.6002 333.608,89.9336 333,91.5C 332.5,116.498 332.333,141.498 332.5,166.5C 331.597,170.404 329.264,173.071 325.5,174.5C 320.878,174.156 316.545,174.823 312.5,176.5C 304.899,177.898 297.566,179.898 290.5,182.5C 286.851,183.267 283.518,184.6 280.5,186.5C 277.843,186.935 275.509,187.935 273.5,189.5C 261.549,194.808 250.549,201.642 240.5,210C 239.167,210.667 237.833,210.667 236.5,210C 217.833,190.667 199.167,171.333 180.5,152C 168.893,143.302 159.393,145.135 152,157.5C 150.963,163.394 151.629,169.061 154,174.5C 173.333,194.5 192.667,214.5 212,234.5C 212.781,235.944 212.614,237.277 211.5,238.5C 205.267,245.392 200.267,253.059 196.5,261.5C 195.094,261.973 194.427,262.973 194.5,264.5C 187.551,276.339 182.551,289.006 179.5,302.5C 178.076,304.515 177.41,306.848 177.5,309.5C 176.343,312.273 175.676,315.273 175.5,318.5C 175.5,318.833 175.5,319.167 175.5,319.5C 174.946,323.055 172.946,325.389 169.5,326.5C 142.165,326.333 114.831,326.5 87.5,327C 86.0577,327.377 85.0577,328.21 84.5,329.5C 82.1667,329.833 80.8333,331.167 80.5,333.5C 79.0937,333.973 78.427,334.973 78.5,336.5C 75.6863,342.003 76.0197,347.336 79.5,352.5C 81.6676,355.5 84.3343,358 87.5,360C 114.167,360.333 140.833,360.667 167.5,361C 169.996,362.666 172.329,364.5 174.5,366.5C 174.927,369.01 175.593,371.343 176.5,373.5C 178.459,391.001 182.792,408.001 189.5,424.5C 189.427,426.027 190.094,427.027 191.5,427.5C 196.296,438.427 202.13,448.76 209,458.5C 209.667,459.833 209.667,461.167 209,462.5C 190.279,481.221 171.613,499.887 153,518.5C 149.988,527.236 151.488,535.07 157.5,542C 164.473,545.282 171.473,545.282 178.5,542C 197.529,523.305 216.195,504.305 234.5,485C 235.167,484.833 235.833,484.667 236.5,484.5C 256.139,500.82 278.472,512.154 303.5,518.5C 305.515,519.924 307.848,520.59 310.5,520.5C 311.833,520.5 313.167,520.5 314.5,520.5C 316.838,522.04 319.505,522.706 322.5,522.5C 327.397,523.722 330.897,526.722 333,531.5C 333.027,557.229 333.694,582.896 335,608.5C 340.245,617.467 347.745,619.967 357.5,616C 360.739,614.264 363.073,611.764 364.5,608.5C 365.674,607.486 366.34,606.153 366.5,604.5C 367.332,579.67 367.832,554.67 368,529.5C 369.481,528.529 370.315,527.196 370.5,525.5C 370.5,524.833 370.833,524.5 371.5,524.5C 375.25,523.386 378.917,522.386 382.5,521.5C 385.495,521.706 388.162,521.04 390.5,519.5C 417.655,513.338 442.155,501.672 464,484.5C 484.154,503.321 503.654,522.821 522.5,543C 534.97,546.515 543.804,542.348 549,530.5C 550.007,525.889 549.34,521.555 547,517.5C 529.388,499.22 511.722,480.886 494,462.5C 493.333,461.167 493.333,459.833 494,458.5C 498.398,451.695 502.232,444.695 505.5,437.5C 506.75,437.423 507.583,436.756 508,435.5C 509.43,432.647 510.263,429.647 510.5,426.5C 514.583,417.079 517.916,407.412 520.5,397.5C 521.895,393.675 523.061,389.675 524,385.5C 524.497,382.854 524.664,380.187 524.5,377.5C 524.137,372.215 526.137,368.215 530.5,365.5C 533.5,364.167 536.5,364.167 539.5,365.5C 545.962,368.899 552.295,372.566 558.5,376.5C 558.002,381.152 557.669,385.819 557.5,390.5C 555.946,394.567 555.28,398.9 555.5,403.5C 553.926,405.102 553.259,407.102 553.5,409.5C 550.798,419.908 547.798,430.241 544.5,440.5C 543.094,440.973 542.427,441.973 542.5,443.5C 539.629,446.236 539.962,448.569 543.5,450.5C 567.861,475.194 592.194,499.86 616.5,524.5C 616.658,527.902 616.324,531.236 615.5,534.5C 589.926,559.909 564.26,585.075 538.5,610C 535.298,611.483 531.964,611.817 528.5,611C 524.63,607.298 520.963,603.464 517.5,599.5C 516.833,598.167 515.833,597.167 514.5,596.5C 494.423,575.922 474.089,555.422 453.5,535C 450.664,535.085 448.331,536.251 446.5,538.5C 442.673,538.752 439.34,540.085 436.5,542.5C 432.873,543.321 429.54,544.654 426.5,546.5C 421.105,547.738 416.105,549.738 411.5,552.5C 409.506,588.485 408.84,624.818 409.5,661.5C 408.11,662.899 407.11,664.566 406.5,666.5C 405.833,666.5 405.167,666.5 404.5,666.5C 367.457,666.821 330.457,666.487 293.5,665.5C 292.496,664.317 291.662,662.984 291,661.5C 290.5,625.168 290.333,588.835 290.5,552.5C 278.196,548.844 266.529,543.844 255.5,537.5C 255.027,536.094 254.027,535.427 252.5,535.5C 251.399,534.2 250.066,533.7 248.5,534C 223.167,559.333 197.833,584.667 172.5,610C 168.167,612 163.833,612 159.5,610C 134.046,584.045 108.713,557.878 83.5,531.5C 83.4013,528.763 83.7347,526.096 84.5,523.5C 109.16,498.007 134.327,473.007 160,448.5C 160.405,446.225 159.905,444.225 158.5,442.5C 158.741,440.102 158.074,438.102 156.5,436.5C 154.026,428.41 151.359,420.41 148.5,412.5C 148.037,409.518 147.704,406.518 147.5,403.5C 110.498,403.667 73.4985,403.5 36.5,403C 35.4734,402.487 34.4734,401.987 33.5,401.5C 32.3995,400.395 31.7329,399.062 31.5,397.5C 31.1668,360.827 31.5001,324.161 32.5,287.5C 33.3199,285.681 34.3199,284.014 35.5,282.5C 35.8417,281.662 36.5084,281.328 37.5,281.5C 74.1667,281.5 110.833,281.5 147.5,281.5C 147.5,280.5 147.5,279.5 147.5,278.5C 151.434,268.378 155.767,258.378 160.5,248.5C 161.906,248.027 162.573,247.027 162.5,245.5C 162.649,244.448 162.483,243.448 162,242.5C 136.695,216.195 111.028,190.195 85,164.5C 82.7979,160.258 83.1312,156.258 86,152.5C 105.747,133.584 125.247,114.584 144.5,95.5C 146.587,94.4154 147.92,92.7488 148.5,90.5C 151.5,86.8333 154.833,83.5 158.5,80.5C 162.5,79.1667 166.5,79.1667 170.5,80.5C 196.606,107.442 222.606,134.608 248.5,162C 249.5,162.667 250.5,162.667 251.5,162C 263.234,154.473 275.9,148.973 289.5,145.5C 290.179,107.961 290.845,70.2941 291.5,32.5C 291.833,31.5 292.5,30.8333 293.5,30.5C 331.167,29.1667 368.833,29.1667 406.5,30.5 Z"/></g>
<g><path style="opacity:1" fill="#a9acab" d="M 280.5,186.5 C 278.824,188.834 276.491,189.834 273.5,189.5C 275.509,187.935 277.843,186.935 280.5,186.5 Z"/></g>
<g><path style="opacity:1" fill="#7e8080" d="M 418.5,186.5 C 420.027,186.427 421.027,187.094 421.5,188.5C 419.973,188.573 418.973,187.906 418.5,186.5 Z"/></g>
<g><path style="opacity:1" fill="#9fa09f" d="M 410.5,183.5 C 412.967,183.755 414.967,184.755 416.5,186.5C 413.895,186.379 411.895,185.379 410.5,183.5 Z"/></g>
<g><path style="opacity:1" fill="#adaeae" d="M 290.5,182.5 C 287.691,184.897 284.358,186.23 280.5,186.5C 283.518,184.6 286.851,183.267 290.5,182.5 Z"/></g>
<g><path style="opacity:1" fill="#595a59" d="M 391.5,177.5 C 394.152,177.41 396.485,178.076 398.5,179.5C 395.848,179.59 393.515,178.924 391.5,177.5 Z"/></g>
<g><path style="opacity:1" fill="#b4b6b5" d="M 325.5,174.5 C 321.433,176.054 317.1,176.72 312.5,176.5C 316.545,174.823 320.878,174.156 325.5,174.5 Z"/></g>
<g><path style="opacity:1" fill="#5c5e5d" d="M 371.5,172.5 C 376.741,173.341 381.741,174.675 386.5,176.5C 382.837,176.048 379.17,175.548 375.5,175C 373.68,174.8 372.347,173.966 371.5,172.5 Z"/></g>
<g><path style="opacity:1" fill="#babcbb" d="M 335.5,87.5 C 335.205,114.163 334.205,140.497 332.5,166.5C 332.333,141.498 332.5,116.498 333,91.5C 333.608,89.9336 334.442,88.6002 335.5,87.5 Z"/></g>
<g><path style="opacity:1" fill="#cecece" d="M 364.5,87.5 C 365.222,87.9175 365.722,88.5842 366,89.5C 366.5,115.165 366.667,140.831 366.5,166.5C 365.798,140.313 365.131,113.98 364.5,87.5 Z"/></g>
<g><path style="opacity:1" fill="#c5c5c5" d="M 244.5,110.5 C 242.923,115.797 243.59,120.797 246.5,125.5C 244.665,124.878 243.498,123.544 243,121.5C 242.333,118.167 242.333,114.833 243,111.5C 243.383,110.944 243.883,110.611 244.5,110.5 Z"/></g>
<g><path style="opacity:1" fill="#191b19" d="M 252.5,104.5 C 255.545,104.508 258.545,104.841 261.5,105.5C 271.158,113.743 270.824,121.576 260.5,129C 255.01,130.504 250.343,129.337 246.5,125.5C 243.59,120.797 242.923,115.797 244.5,110.5C 246.094,107.039 248.761,105.039 252.5,104.5 Z"/></g>
<g><path style="opacity:1" fill="#6d706d" d="M 252.5,104.5 C 253.449,103.848 254.615,103.514 256,103.5C 258.221,103.393 260.054,104.06 261.5,105.5C 258.545,104.841 255.545,104.508 252.5,104.5 Z"/></g>
<g><path style="opacity:1" fill="#7d7f7e" d="M 179.5,302.5 C 179.59,305.152 178.924,307.485 177.5,309.5C 177.41,306.848 178.076,304.515 179.5,302.5 Z"/></g>
<g><path style="opacity:1" fill="#9fa1a0" d="M 306.5,308.5 C 305.92,310.749 304.587,312.415 302.5,313.5C 303.08,311.251 304.413,309.585 306.5,308.5 Z"/></g>
<g><path style="opacity:1" fill="#8d9290" d="M 261.5,311.5 C 261.573,313.027 260.906,314.027 259.5,314.5C 259.427,312.973 260.094,311.973 261.5,311.5 Z"/></g>
<g><path style="opacity:1" fill="#141615" d="M 666.5,322.5 C 674.783,330.061 678.283,339.394 677,350.5C 669.558,367.8 656.725,373.633 638.5,368C 622.193,355.233 620.36,340.733 633,324.5C 633.333,291.167 633.667,257.833 634,224.5C 643.615,218.28 653.115,211.947 662.5,205.5C 663.496,205.586 664.329,205.252 665,204.5C 665.167,244.002 665.667,283.335 666.5,322.5 Z"/></g>
<g><path style="opacity:1" fill="#9b9d9d" d="M 177.5,309.5 C 177.664,312.187 177.497,314.854 177,317.5C 176.617,318.056 176.117,318.389 175.5,318.5C 175.676,315.273 176.343,312.273 177.5,309.5 Z"/></g>
<g><path style="opacity:1" fill="#adb0af" d="M 175.5,319.5 C 176.323,324.339 174.323,326.673 169.5,326.5C 172.946,325.389 174.946,323.055 175.5,319.5 Z"/></g>
<g><path style="opacity:1" fill="#cdcfce" d="M 169.5,326.5 C 143.003,327.332 116.336,327.832 89.5,328C 88.0953,329.269 86.4286,329.769 84.5,329.5C 85.0577,328.21 86.0577,327.377 87.5,327C 114.831,326.5 142.165,326.333 169.5,326.5 Z"/></g>
<g><path style="opacity:1" fill="#c4c6c4" d="M 257.5,320.5 C 256.784,325.349 255.784,330.015 254.5,334.5C 253.946,329.357 254.946,324.69 257.5,320.5 Z"/></g>
<g><path style="opacity:1" fill="#7e7e7e" d="M 588.5,330.5 C 584.766,330.323 581.099,330.656 577.5,331.5C 577.611,330.883 577.944,330.383 578.5,330C 582.027,329.192 585.36,329.359 588.5,330.5 Z"/></g>
<g><path style="opacity:1" fill="#121412" d="M 376.5,338.5 C 377.275,343.797 377.608,349.13 377.5,354.5C 375.878,362.76 371.545,369.093 364.5,373.5C 357.614,377.009 350.281,378.342 342.5,377.5C 326.441,371.08 319.274,359.08 321,341.5C 330.082,320.243 345.249,314.743 366.5,325C 371.233,328.552 374.566,333.052 376.5,338.5 Z"/></g>
<g><path style="opacity:1" fill="#171818" d="M 588.5,330.5 C 588.842,331.338 589.508,331.672 590.5,331.5C 591.5,333.167 592.833,334.5 594.5,335.5C 599.588,348.92 594.922,355.753 580.5,356C 577.292,354.089 574.625,351.589 572.5,348.5C 571.656,344.901 571.323,341.234 571.5,337.5C 573.167,335.167 575.167,333.167 577.5,331.5C 581.099,330.656 584.766,330.323 588.5,330.5 Z"/></g>
<g><path style="opacity:1" fill="#969696" d="M 590.5,331.5 C 592.833,331.833 594.167,333.167 594.5,335.5C 592.833,334.5 591.5,333.167 590.5,331.5 Z"/></g>
<g><path style="opacity:1" fill="#c7c7c7" d="M 517.5,327.5 C 514.877,332.123 511.21,335.79 506.5,338.5C 509.833,334.5 513.5,330.833 517.5,327.5 Z"/></g>
<g><path style="opacity:1" fill="#939595" d="M 80.5,333.5 C 80.573,335.027 79.9063,336.027 78.5,336.5C 78.427,334.973 79.0937,333.973 80.5,333.5 Z"/></g>
<g><path style="opacity:1" fill="#a8a9a7" d="M 78.5,336.5 C 78.3243,341.88 78.6576,347.213 79.5,352.5C 76.0197,347.336 75.6863,342.003 78.5,336.5 Z"/></g>
<g><path style="opacity:1" fill="#888989" d="M 571.5,337.5 C 571.323,341.234 571.656,344.901 572.5,348.5C 571.883,348.389 571.383,348.056 571,347.5C 570.192,343.973 570.359,340.64 571.5,337.5 Z"/></g>
<g><path style="opacity:1" fill="#474747" d="M 35.5,282.5 C 34.3199,284.014 33.3199,285.681 32.5,287.5C 31.5001,324.161 31.1668,360.827 31.5,397.5C 30.3356,360.669 30.1689,323.669 31,286.5C 31.7475,284.249 33.2475,282.916 35.5,282.5 Z"/></g>
<g><path style="opacity:1" fill="#5f6060" d="M 442.5,339.5 C 431.346,340.495 420.012,340.828 408.5,340.5C 408.821,346.026 408.488,351.36 407.5,356.5C 407.5,350.833 407.5,345.167 407.5,339.5C 419.167,339.5 430.833,339.5 442.5,339.5 Z"/></g>
<g><path style="opacity:1" fill="#383a39" d="M 376.5,338.5 C 378.006,341.356 378.672,344.523 378.5,348C 378.496,350.361 378.163,352.527 377.5,354.5C 377.608,349.13 377.275,343.797 376.5,338.5 Z"/></g>
<g><path style="opacity:1" fill="#8e908d" d="M 539.5,365.5 C 536.5,364.167 533.5,364.167 530.5,365.5C 531.492,363.974 532.992,363.307 535,363.5C 537.008,363.307 538.508,363.974 539.5,365.5 Z"/></g>
<g><path style="opacity:1" fill="#696b6b" d="M 174.5,366.5 C 175.117,366.611 175.617,366.944 176,367.5C 176.495,369.473 176.662,371.473 176.5,373.5C 175.593,371.343 174.927,369.01 174.5,366.5 Z"/></g>
<g><path style="opacity:1" fill="#b1b3b3" d="M 463.5,370.5 C 462.192,371.232 460.858,372.066 459.5,373C 453.752,373.212 448.085,373.712 442.5,374.5C 449.118,372.569 456.118,371.236 463.5,370.5 Z"/></g>
<g><path style="opacity:1" fill="#7e817e" d="M 255.5,367.5 C 256.924,369.515 257.59,371.848 257.5,374.5C 256.076,372.485 255.41,370.152 255.5,367.5 Z"/></g>
<g><path style="opacity:1" fill="#ced0cf" d="M 364.5,373.5 C 364.631,374.376 364.298,375.043 363.5,375.5C 360.204,376.765 356.871,377.932 353.5,379C 349.552,379.745 345.885,379.245 342.5,377.5C 350.281,378.342 357.614,377.009 364.5,373.5 Z"/></g>
<g><path style="opacity:1" fill="#c1c3c2" d="M 442.5,374.5 C 442.196,377.522 441.696,380.522 441,383.5C 440.292,384.381 439.458,385.047 438.5,385.5C 439.462,381.605 440.796,377.939 442.5,374.5 Z"/></g>
<g><path style="opacity:1" fill="#555754" d="M 524.5,377.5 C 524.664,380.187 524.497,382.854 524,385.5C 523.061,389.675 521.895,393.675 520.5,397.5C 521.011,390.539 522.344,383.873 524.5,377.5 Z"/></g>
<g><path style="opacity:1" fill="#909190" d="M 558.5,376.5 C 559.891,381.262 559.558,385.928 557.5,390.5C 557.669,385.819 558.002,381.152 558.5,376.5 Z"/></g>
<g><path style="opacity:1" fill="#9d9e9d" d="M 557.5,390.5 C 557.72,395.1 557.054,399.433 555.5,403.5C 555.28,398.9 555.946,394.567 557.5,390.5 Z"/></g>
<g><path style="opacity:1" fill="#888a89" d="M 433.5,396.5 C 433.573,398.027 432.906,399.027 431.5,399.5C 431.427,397.973 432.094,396.973 433.5,396.5 Z"/></g>
<g><path style="opacity:1" fill="#929391" d="M 266.5,397.5 C 267.906,397.973 268.573,398.973 268.5,400.5C 267.094,400.027 266.427,399.027 266.5,397.5 Z"/></g>
<g><path style="opacity:1" fill="#dfe0e0" d="M 33.5,401.5 C 34.4734,401.987 35.4734,402.487 36.5,403C 73.4985,403.5 110.498,403.667 147.5,403.5C 147.704,406.518 148.037,409.518 148.5,412.5C 147.883,412.389 147.383,412.056 147,411.5C 146.764,409.236 146.264,407.069 145.5,405C 108.833,404.667 72.1667,404.333 35.5,404C 34.244,403.583 33.5774,402.75 33.5,401.5 Z"/></g>
<g><path style="opacity:1" fill="#a8a9a8" d="M 269.5,402.5 C 271.587,403.585 272.92,405.251 273.5,407.5C 271.413,406.415 270.08,404.749 269.5,402.5 Z"/></g>
<g><path style="opacity:1" fill="#797a7b" d="M 330.5,404.5 C 333.152,404.41 335.485,405.076 337.5,406.5C 334.848,406.59 332.515,405.924 330.5,404.5 Z"/></g>
<g><path style="opacity:1" fill="#aaabaa" d="M 273.5,407.5 C 275.587,408.585 276.92,410.251 277.5,412.5C 275.413,411.415 274.08,409.749 273.5,407.5 Z"/></g>
<g><path style="opacity:1" fill="#898c89" d="M 555.5,403.5 C 555.741,405.898 555.074,407.898 553.5,409.5C 553.259,407.102 553.926,405.102 555.5,403.5 Z"/></g>
<g><path style="opacity:1" fill="#afafaf" d="M 473.5,418.5 C 476.5,419.5 478.5,421.5 479.5,424.5C 477.167,422.833 475.167,420.833 473.5,418.5 Z"/></g>
<g><path style="opacity:1" fill="#131614" d="M 473.5,418.5 C 475.167,420.833 477.167,422.833 479.5,424.5C 480.6,425.605 481.267,426.938 481.5,428.5C 481.259,430.898 481.926,432.898 483.5,434.5C 484.133,439.922 483.133,444.922 480.5,449.5C 478.167,451.167 476.167,453.167 474.5,455.5C 471.807,456.552 469.14,457.552 466.5,458.5C 461.797,458.563 457.13,458.229 452.5,457.5C 448.167,455.167 444.833,451.833 442.5,447.5C 440.887,442.993 440.221,438.327 440.5,433.5C 443.224,422.281 450.391,416.281 462,415.5C 465.753,416.564 469.586,417.564 473.5,418.5 Z"/></g>
<g><path style="opacity:1" fill="#848784" d="M 189.5,424.5 C 190.906,424.973 191.573,425.973 191.5,427.5C 190.094,427.027 189.427,426.027 189.5,424.5 Z"/></g>
<g><path style="opacity:1" fill="#575959" d="M 119.5,428.5 C 115.766,428.323 112.099,428.656 108.5,429.5C 108.611,428.883 108.944,428.383 109.5,428C 113.027,427.192 116.36,427.359 119.5,428.5 Z"/></g>
<g><path style="opacity:1" fill="#898989" d="M 405.5,426.5 C 405.027,427.906 404.027,428.573 402.5,428.5C 402.973,427.094 403.973,426.427 405.5,426.5 Z"/></g>
<g><path style="opacity:1" fill="#5e605f" d="M 591.5,429.5 C 586.833,428.167 582.167,428.167 577.5,429.5C 577.611,428.883 577.944,428.383 578.5,428C 582.5,427.333 586.5,427.333 590.5,428C 591.056,428.383 591.389,428.883 591.5,429.5 Z"/></g>
<g><path style="opacity:1" fill="#131615" d="M 591.5,429.5 C 599.146,435.713 599.479,442.546 592.5,450C 583.927,454.361 577.261,452.527 572.5,444.5C 572.323,440.766 572.656,437.099 573.5,433.5C 574.5,431.833 575.833,430.5 577.5,429.5C 582.167,428.167 586.833,428.167 591.5,429.5 Z"/></g>
<g><path style="opacity:1" fill="#141616" d="M 119.5,428.5 C 122.427,429.757 124.761,431.757 126.5,434.5C 127.867,439.27 127.534,443.937 125.5,448.5C 110.154,456.672 102.988,452.005 104,434.5C 104.996,432.34 106.496,430.673 108.5,429.5C 112.099,428.656 115.766,428.323 119.5,428.5 Z"/></g>
<g><path style="opacity:1" fill="#525552" d="M 481.5,428.5 C 483.074,430.102 483.741,432.102 483.5,434.5C 481.926,432.898 481.259,430.898 481.5,428.5 Z"/></g>
<g><path style="opacity:1" fill="#464845" d="M 510.5,426.5 C 510.263,429.647 509.43,432.647 508,435.5C 507.583,436.756 506.75,437.423 505.5,437.5C 506.93,433.646 508.597,429.979 510.5,426.5 Z"/></g>
<g><path style="opacity:1" fill="#a1a2a2" d="M 388.5,435.5 C 386.383,437.655 383.716,438.655 380.5,438.5C 382.936,437.129 385.603,436.129 388.5,435.5 Z"/></g>
<g><path style="opacity:1" fill="#abaead" d="M 156.5,436.5 C 158.074,438.102 158.741,440.102 158.5,442.5C 156.926,440.898 156.259,438.898 156.5,436.5 Z"/></g>
<g><path style="opacity:1" fill="#959796" d="M 380.5,438.5 C 378.485,439.924 376.152,440.59 373.5,440.5C 375.515,439.076 377.848,438.41 380.5,438.5 Z"/></g>
<g><path style="opacity:1" fill="#747776" d="M 573.5,433.5 C 572.656,437.099 572.323,440.766 572.5,444.5C 571.359,441.36 571.192,438.027 572,434.5C 572.383,433.944 572.883,433.611 573.5,433.5 Z"/></g>
<g><path style="opacity:1" fill="#989a9a" d="M 126.5,434.5 C 127.117,434.611 127.617,434.944 128,435.5C 128.767,439.594 128.434,443.594 127,447.5C 126.617,448.056 126.117,448.389 125.5,448.5C 127.534,443.937 127.867,439.27 126.5,434.5 Z"/></g>
<g><path style="opacity:1" fill="#8d8e8d" d="M 371.5,440.5 C 369.485,441.924 367.152,442.59 364.5,442.5C 366.515,441.076 368.848,440.41 371.5,440.5 Z"/></g>
<g><path style="opacity:1" fill="#8d8f8e" d="M 544.5,440.5 C 544.573,442.027 543.906,443.027 542.5,443.5C 542.427,441.973 543.094,440.973 544.5,440.5 Z"/></g>
<g><path style="opacity:1" fill="#b8b8b8" d="M 440.5,433.5 C 440.221,438.327 440.887,442.993 442.5,447.5C 441.21,446.942 440.377,445.942 440,444.5C 439.19,440.642 439.357,436.976 440.5,433.5 Z"/></g>
<g><path style="opacity:1" fill="#a7aaa7" d="M 542.5,443.5 C 542.448,445.903 542.781,448.236 543.5,450.5C 539.962,448.569 539.629,446.236 542.5,443.5 Z"/></g>
<g><path style="opacity:1" fill="#b1b1b1" d="M 480.5,449.5 C 479.5,452.5 477.5,454.5 474.5,455.5C 476.167,453.167 478.167,451.167 480.5,449.5 Z"/></g>
<g><path style="opacity:1" fill="#585b5a" d="M 452.5,457.5 C 457.13,458.229 461.797,458.563 466.5,458.5C 464.696,459.162 462.696,459.495 460.5,459.5C 457.473,459.713 454.807,459.047 452.5,457.5 Z"/></g>
<g><path style="opacity:1" fill="#727572" d="M 303.5,518.5 C 306.152,518.41 308.485,519.076 310.5,520.5C 307.848,520.59 305.515,519.924 303.5,518.5 Z"/></g>
<g><path style="opacity:1" fill="#929493" d="M 390.5,519.5 C 388.162,521.04 385.495,521.706 382.5,521.5C 384.905,520.232 387.572,519.565 390.5,519.5 Z"/></g>
<g><path style="opacity:1" fill="#969897" d="M 314.5,520.5 C 317.428,520.565 320.095,521.232 322.5,522.5C 319.505,522.706 316.838,522.04 314.5,520.5 Z"/></g>
<g><path style="opacity:1" fill="#828381" d="M 382.5,521.5 C 378.917,522.386 375.25,523.386 371.5,524.5C 372.058,523.21 373.058,522.377 374.5,522C 377.146,521.503 379.813,521.336 382.5,521.5 Z"/></g>
<g><path style="opacity:1" fill="#b2b2b2" d="M 84.5,523.5 C 83.7347,526.096 83.4013,528.763 83.5,531.5C 82.8476,530.551 82.5143,529.385 82.5,528C 82.3068,525.992 82.9735,524.492 84.5,523.5 Z"/></g>
<g><path style="opacity:1" fill="#9c9e9d" d="M 616.5,524.5 C 617.638,527.304 617.805,530.304 617,533.5C 616.617,534.056 616.117,534.389 615.5,534.5C 616.324,531.236 616.658,527.902 616.5,524.5 Z"/></g>
<g><path style="opacity:1" fill="#5f5f5f" d="M 370.5,525.5 C 370.315,527.196 369.481,528.529 368,529.5C 367.832,554.67 367.332,579.67 366.5,604.5C 366.5,579.833 366.5,555.167 366.5,530.5C 367.08,528.251 368.413,526.585 370.5,525.5 Z"/></g>
<g><path style="opacity:1" fill="#737373" d="M 252.5,535.5 C 254.027,535.427 255.027,536.094 255.5,537.5C 253.973,537.573 252.973,536.906 252.5,535.5 Z"/></g>
<g><path style="opacity:1" fill="#cecece" d="M 366.5,530.5 C 366.5,555.167 366.5,579.833 366.5,604.5C 366.34,606.153 365.674,607.486 364.5,608.5C 365.14,582.36 365.807,556.36 366.5,530.5 Z"/></g>
<g><path style="opacity:1" fill="#bcbdbd" d="M 446.5,538.5 C 443.66,540.915 440.327,542.248 436.5,542.5C 439.34,540.085 442.673,538.752 446.5,538.5 Z"/></g>
<g><path style="opacity:1" fill="#b2b4b2" d="M 426.5,546.5 C 426.389,547.117 426.056,547.617 425.5,548C 420.889,549.812 416.223,551.312 411.5,552.5C 416.105,549.738 421.105,547.738 426.5,546.5 Z"/></g>
<g><path style="opacity:1" fill="#9ea09f" d="M 251.5,567.5 C 253.966,566.366 256.633,566.199 259.5,567C 260.056,567.383 260.389,567.883 260.5,568.5C 257.57,567.701 254.57,567.368 251.5,567.5 Z"/></g>
<g><path style="opacity:1" fill="#9b9c9c" d="M 439.5,567.5 C 442.304,566.362 445.304,566.195 448.5,567C 450.32,567.2 451.653,568.034 452.5,569.5C 448.326,567.936 443.993,567.269 439.5,567.5 Z"/></g>
<g><path style="opacity:1" fill="#181919" d="M 439.5,567.5 C 443.993,567.269 448.326,567.936 452.5,569.5C 457.207,575.052 457.707,581.052 454,587.5C 442.408,596.205 434.908,593.539 431.5,579.5C 431.667,577.833 431.833,576.167 432,574.5C 433.736,571.261 436.236,568.927 439.5,567.5 Z"/></g>
<g><path style="opacity:1" fill="#171918" d="M 251.5,567.5 C 254.57,567.368 257.57,567.701 260.5,568.5C 263.089,569.419 265.089,571.086 266.5,573.5C 267.299,576.43 267.632,579.43 267.5,582.5C 264.159,591.999 257.826,594.666 248.5,590.5C 242.89,584.857 242.057,578.523 246,571.5C 247.451,569.536 249.284,568.203 251.5,567.5 Z"/></g>
<g><path style="opacity:1" fill="#6d706f" d="M 266.5,573.5 C 267.117,573.611 267.617,573.944 268,574.5C 268.801,577.367 268.634,580.034 267.5,582.5C 267.632,579.43 267.299,576.43 266.5,573.5 Z"/></g>
<g><path style="opacity:1" fill="#b5b7b6" d="M 411.5,552.5 C 410.839,588.931 410.173,625.264 409.5,661.5C 408.84,624.818 409.506,588.485 411.5,552.5 Z"/></g>
<g><path style="opacity:1" fill="#959794" d="M 514.5,596.5 C 515.833,597.167 516.833,598.167 517.5,599.5C 515.5,599.5 514.5,598.5 514.5,596.5 Z"/></g>
<g><path style="opacity:1" fill="#6c6e6d" d="M 293.5,665.5 C 330.457,666.487 367.457,666.821 404.5,666.5C 368.671,667.498 332.671,667.832 296.5,667.5C 294.973,667.573 293.973,666.906 293.5,665.5 Z"/></g>
<g><path style="opacity:1" fill="#e1e3e2" d="M 404.5,666.5 C 405.167,666.5 405.833,666.5 406.5,666.5C 406.389,667.117 406.056,667.617 405.5,668C 368.998,668.831 332.664,668.664 296.5,667.5C 332.671,667.832 368.671,667.498 404.5,666.5 Z"/></g>
</svg>
